/* XPM */
static char *_7aae5a4b1304986c1a958908329c2ccGcdpqCeqWXlzvGqN[] = {
/* columns rows colors chars-per-pixel */
"32 32 2 1 ",
"  c black",
". c white",
/* pixels */
"                                ",
" .............................. ",
" .............................. ",
" .............................. ",
" .............................. ",
" .............................. ",
" .............................. ",
" .............................. ",
" .............................. ",
" .............................. ",
" ............       ........... ",
" ...........       ............ ",
" ...........  ................. ",
" ...........  ................. ",
" ...........  ................. ",
" ............     ............. ",
" .............     ............ ",
" .................  ........... ",
" .................  ........... ",
" .................  ........... ",
" ............       ........... ",
" ...........       ............ ",
" .............................. ",
" .............................. ",
" .............................. ",
" .............................. ",
" .............................. ",
" .............................. ",
" .............................. ",
" .............................. ",
" .............................. ",
"                                "
};
