/* XPM */
static char *_3358a749d3a48e5b614acd58a2bcd54FHnsxjZs0YduZd4z[] = {
/* columns rows colors chars-per-pixel */
"128 128 12 1 ",
"  c black",
". c #050912",
"X c #0A2737",
"o c #07465B",
"O c #6EC46C",
"+ c #0E6784",
"@ c #0D7B89",
"# c #1497A8",
"$ c #20B0C3",
"% c #1EC4C8",
"& c #25EDCF",
"* c #D1F7BA",
/* pixels */
"                                                                                                                                ",
"                                                                                                                                ",
"                                                                                                                                ",
"                                                                                                                                ",
"                                                                                                                                ",
"                                                                                                                                ",
"                                                                                                                                ",
"                                                                                                                                ",
"                                                                                                                                ",
"                                                                                                                                ",
"                                                                                                                                ",
"                                                                                                                                ",
"                                                                                                                                ",
"                                                                                                                                ",
"                                                                                                                                ",
"                                                                                                                                ",
"                                                                                                                                ",
"                                                                                                                                ",
"                                                                                                                                ",
"                                                                                                                                ",
"                                                                                                                                ",
"                                                                                                                                ",
"                                                                                                                                ",
"                                                                                                                                ",
"                                                                                                                                ",
"                                                                                                                                ",
"                                                                                                                                ",
"                                                                                                                                ",
"                                                                                                                                ",
"                                                               XXXX                                                             ",
"                                                                X.                                                              ",
"                                                                X.                                                              ",
"                                                                X.                                                              ",
"                                                               XooX                                                             ",
"                                                               ....                                                             ",
"                                                               XooX                                                             ",
"                                                               ....                                                             ",
"                                                              Xo@@oXX                                                           ",
"                                                              Xo@@oXX                                                           ",
"                                                              .......                                                           ",
"                                                           o@@@@oXXXXXX                                                         ",
"                                                           oO**OoXXXXXX                                                         ",
"                                                           oO**Oooooooo                                                         ",
"                                                           o@@@@oXXXXXX                                                         ",
"                                                           ..........                                                           ",
"                                                            @@X.@@XXX                                                           ",
"                                                            @@X.@@XXXX                                                          ",
"                                                       $$$$$$$$$$$$$$$$$$$$$                                                    ",
"                                                       %%%%%%%%+++++%%%%%%%%                                                    ",
"                                                       $$$$$$$oo@o@oo$$$$$$$                                                    ",
"                                                       %%%%%%%++#+++++%%%%%%                                                    ",
"                                                       $$$$$ooooooooooo$$$$$                                                    ",
"                                                       %%%%%++##$$$##++%%%%                                                     ",
"                                                        $$$$oo@$$$$$@oo$$$$                                                     ",
"                                                        %%%%+++++@+++++%%%%                                                     ",
"                                                        $$$$ooooo@oooo$$$$$                                                     ",
"                                                        %%%%%+$$###$$+%%%%%                                                     ",
"                                                         $$$$oo@ooo@@o$$$$                                                      ",
"                                                         %%%%+o##o###+%%%%                                                      ",
"                                                         $$$$$o@ooo@o$$$$$                                                      ",
"                                                         %%%%%%+###+%%%%%%                                                      ",
"                                                         $$$$ooooooooo$$$$                                                      ",
"                                                         %%%++++$$$+++++%%                                                      ",
"                                                         $oooooo@$@oooooo$                                                      ",
"                                                         %+++++++++++++++%                                                      ",
"                                                              X..XXXX                                                           ",
"                                                              @.....                                                            ",
"                                                              @o.XXX                                                            ",
"                                                              @ooXXX                                                            ",
"                                                              @ooXXX                                                            ",
"                                                              @ooXXX                                                            ",
"                                                              @ooXXX                                                            ",
"                                                              oXXXXX                                                            ",
"                                                              @ooooX                                                            ",
"                                                              @ooXXX                                                            ",
"                                                              @ooXXX                                                            ",
"                                                              @ooXXX                                                            ",
"                                                              @ooXXX                                                            ",
"                                                              @ooXXX                                                            ",
"                                                              @ooXXX                                                            ",
"                                                              ...oXX                                                            ",
"                                                              @@@XXX                                                            ",
"                                                              @ooXXX                                                            ",
"                                                              ...oXX                                                            ",
"                                                              @@@XXX                                                            ",
"                                                              @ooXXX                                                            ",
"                                                              ...oXX                                                            ",
"                                                              @@@XXX                                                            ",
"                                                              @ooXXX                                                            ",
"                                                              @ooXXX                                                            ",
"                                                              @ooXXX                                                            ",
"                                                              @ooXXX                                                            ",
"                                                              @ooXXX                                                            ",
"                                                              @ooXXX                                                            ",
"                                                              @ooXXX                                                            ",
"                                                              oXXXXX                                                            ",
"                                                              @ooooX                                                            ",
"                                                              @ooXXX                                                            ",
"                                                              @ooXXX                                                            ",
"                                                 @@@oo@o@@&@oooXXXXX                                                            ",
"                                                 @oooooooo@X..X..XXX                                                            ",
"                                                 @oooooooo@XXooXXXXX                                                            ",
"                                                 .Xooooo.XoX..X..XXX                                                            ",
"                                                 .Xo.XXo.XoXXXXXXooo                                                            ",
"                                                 .o.XXXXoooX..o..XXX                                                            ",
"                                                 oo.@@XXoooXXoooXXXX                                                            ",
"                                                 oo.ooXXoooX..o..XXX                                                            ",
"                                                 oo.XXXXoooXXXXXXXXX                                                            ",
"                                                 .Xo.XXo.XoX..X..XoX                                                            ",
"                                                 .Xooooo.XoXXXXXXXXX                                                            ",
"                                                 ooooooooooX..o..XXX                                                            ",
"                                                 ooooooooooXXoooXXXX                                                            ",
"                                                 o..XX.XXXoX..o..XXX                                                            ",
"                                                 ooooooooooXXXXXXXoX                                                            ",
"                                                 o..XX..XXoX..X..XXX                                                            ",
"                                                 ooooooooooXXXXXXXXX                                                            ",
"                                                 o..X.XX.XoX..o..ooo                                                            ",
"                                                 ooooooooooXXoooXooo                                                            ",
"                                                 XooooooooXX..o..XXX                                                            ",
"                                                 XoooXXoooXXXXXXXooo                                                            ",
"                                                 XooXooXooXX..o..ooooo                                                          ",
"                                                 ooo.XX.oooXXoooXXXooooo                                                        ",
"                                                 @ooXooXoo@X..o....XXooooo                                                      ",
"                                                 @oo.XX.oo@XXXXXX..XXoXooo                                                      ",
"                                                 @@oXooXo@@ooXXXX                                                               ",
"                                                 ................                                                               ",
"                                                                                                                                ",
"                                                                                                                                "
};
