/* XPM */
static char *f5f928f1f523478dda884619bc96d24eA9AtKEoHhINLK4Qh[] = {
/* columns rows colors chars-per-pixel */
"128 128 18 1 ",
"  c #050912",
". c #031325",
"X c #00003C",
"o c #072B3A",
"O c #010350",
"+ c #040C5A",
"@ c #21004B",
"# c #320D4E",
"$ c #031B70",
"% c #0B347F",
"& c #540052",
"* c #FC583A",
"= c #F07C36",
"- c #880C4F",
"; c #EC1E44",
": c #DE9A41",
"> c #177DAA",
", c #9B0C8E",
/* pixels */
"XOOOXXXXXXXXXXXXXXXXXXXX@@@@@@@@XXXXXXXXXXXXXXXXXXXOOOOOXXOOOOOXXXXXXXXXXXXXXXXXXXXXXXXXXXO@@@@OOOXXXXXOOOOOOOXXXOOOOOOXXXXXXXXX",
"XOOOOOOOXXXXXXXXXXXXXXXXXXXXXXXXXXXXXOOOOOXXXXOOOOOOOOOOXXOOOOOOOOXXXXXXXXXXXXXXXXXXXXXXXXXXXXXXXXXXXXXXXXXXXXXXXXXXXXXXXXXXXXXX",
"OOOOOOOOOOXXXXXXXXXXXXXXXOOOOOOOOOXXOOOOOOOOXXXXXOOOOOOOOXXOOOOOXXXXXXXXXXXXXXXXXXXXXXXXXXOOXXXXXXXXXXXXXXXXXXXXXXXXOOOXXXXXXXXX",
"OOOOOOOOOOOOOXXOOOXXXXXXXXXXXXOOOOOOOOOOOOOOOOOOO@@OOOOOOOOOOOOOXXXOOOOOOOOOOOOXXXXOOOXXXOOOXXXXXXXXXXXXXXXXXXXOOOOOOOOOXXXXXXXX",
"OXXOOOOOOOOOOOOOOOOOOOOOOOXXXXXXXXXXXXXOOXXXX@@@@@@@@@@@@@OOOOXXXXXXXOOOOOOOOOOOOOOOOOOOOOOOXXXXXXXXXXXXXXXXXXXXXXXXXOOXXXXXXXXX",
"X%%XX@@@@@@@@@OOOOOOOOOOOOXXXXXXXOO@OOOOOOOOOOXXX@@@@@@@OOOOOOOOXXXXXXXOO@@@@@OOOOOOXOOOOOXXXXXXXXXXXXXXXXXXXOOXXXXXXXXXXXXXXXXX",
"XX%XXXO@@@@@@@O@@@OOOOOOXXXXXXXXXO@@@@@@@@@OOOOOOOXXXXXXXXXXXXXXXXXXXXX@@@@@@@@@@XXXXXXXXXXXXXXXXXXXXXXXXOOOOOOOOOOOOOOOOXXXXXXX",
"XX%XXXX@@@@@@@@XXXXXXXXXXXXXXXXXXXXX@@@@@OOOOOOOOOOOOOXXXXXXXXXXXXXXXXXXXXXXXXXXXXXXXXXXXXXXXXXXXXXXXXXXXXOOOOOOOOOOOOXXXXXXXXXX",
"XX%XXXXXXXXXXXXXXXXXXXXXXXXXXXXXXXXXXXXOOOOOO           XXXXXXXXXXXXXXXXXXXXXXXXXXXXXXXXXXXXXXXXXXXXXXXXOOOOOOOOOOOOOOOOXXXXXXXX",
"XX%XXXXXXXXXXXXXXXXXXXXXXXXXXXXXXXXXXXXXXXO@@           OOOXXXXXXXXXXXXXXXXOOOOOXXXXXXXXXXXOOOOOXXXXXXXXXXOOOOOXXXXXXXOOXXXXXXXX",
"XX%XXXXX+XXXXXXXXXXOOOXXXXXXXXXXXXXXXXXXXX@@@           @@OOOOXXXXXXXXXXXXXXXXXXXXXXXXXXOOOOOOOOOOOXXXXXXXXXXXXXXXXXXXXXXXXXXXXX",
"XX%XXXXX+XXXXXXXXXXOOOOOOOOOOOOXXXXXXXXXXXXXX           @@@OOOOOOOOOOOXXXXXXXOOOOOOOOXXXXOOOOOOOXXXXXXXXXXXXXXXXOXXXXXXXXXXXXXXX",
"XX%%%XXX+XXX+%%@@X@@@OOOOOOOOOOXXOOOOOXXXXXXX           @@@@@@@OOOOOOOOOOXXOOOOOOOOOOOOOXXXOOOXXXXXXXXXXXXOOOOOOOOXXXXXXXXXXXXXX",
"XXXX%XXX+XXX+%%XO@@@O@@@@@O@OOOOOOOXXXXXXXXXX           @@@@@@@@@@@OOOOOOOOOOOOOOOOOOOOOOOOOOOXXXXXXXXXXXXXXXXXXOOOOXXXXXXXXXXXX",
"X+XX%XXX+XXX+%%XXOOO@@@@@@@@@@@@@OXXXXXXXXXXX           OO@@@@@@@@@@OOOOOOXXXXXXXXXOOOOOXXXXXXXXXXXXXXXXXXXXXXXXXXOOOXXXXXXOXXXX",
"X++X%XXX+XXX+%%XXXXXXX@@@XXXXOOOXXXXXXXXXXXXX           XOO&&&&@@@@@OOOOOOOXXXXXXXXXXXXXXXXXXXXXXXXOOOOOOXXXXXXXOOOOOOOXXXOOOXXX",
"X++X%OOOXXXX+%%XXXXXXXXXXXXXXXXXXX@@@@@@@@OOO           XXOOOOOOOO@@OXXXXXXXXXXXXXXXXOOOXXXXXXXXXOOOOOOOOOOOXXXOOOOOXOOOOOOOOXXX",
"++++++++X++X+%%XXXXXXXXOOOX%XOOOXOO@@@@@@@@@@           OOOOOOOOOOOOOOOOXXXXXXXXXOOOOOOOOOOOOOOXOOOOOOOOOOO@OOOOOOOXXXOOOOOOOOOO",
"+++XXXXXX++X+++XXXXOOOOOOO%>%OOOOOOOOOOOOO@@@           OO@@@@OOO@@OOOOOOOXXXXXXXXXXXXOOO@@OOOOOOOOOOO@@OO@@OOOOOXXXXXXXXXXXXXXX",
"XXXXXXXXX+%XX++XXXXXOOOOOOO% O@@@@@@@@OOOOOOO           @@@@@@@@@@@@@@OOXXXXXXXXXXXXXXXOOO@@@@@@O@@@@@@@@@OOOO@@@XXXXXXXXXXXXXXX",
"XXXXXXXXX+%XX%+XOO@@@@@@@@@  @OOOOOOOOOOOOOO@           @@@@@@@@@@@@@@@@@OOOOOXXXXXXXXXXXOOOO@@@&@&&&&&@&&@@@@@@XXXXXXXXXXXXXXXX",
"XXX%XXXXX+%XX%+XOO@@@@@@@@@  @@@@@OOOOO@@@@@@           OOOOOOO&@&&&&&&@@@@OOOOOOXXXOOOOOOOOOXXX@@@@@XXXXXX@XXXXXXXXXXXXXXXXXXXX",
">>X+%%XXX+%XX%+X@@@@@@&&&&&  &@@@@@@@@@@&&&&&&&  &O@@  @@@@@@@@@@@&@&&&&&&@&@OOOOOOOOOOO@@@OOXXXXXXXXXXXXXXXXXXXXXXXXXXXXXXXXXXX",
"XXXXXXXXX+%XX%+X&&&&&&&@@@@  @@@@@@@@@@@@@&----  OO@@  &&&&&@@@@@@@@@@@@@@@@@@O@@@@@@@@@@@@@@@@@XXOOOXXXXXXXXXXXXXXXXXXXXXXXXXXX",
"%>+>%+XXX+%XX%+X&--OO&&&&@@  @@@@@@@@@@@@@@@OOO   OOO  @&&&&%&&@@@@@@@@@@@@@@@@@@@@@@@@@@@@@@@@@XXXOOOOOOOOXXXXXXXXXXXXXXXXXXXXX",
"XXXXXXXXX+%XX%+X-@@OO@@@&&&        @@@@@@@@OOOO  O OO  OOOO%>%@@&&&&&&&&&&&&@@&&&@@@@@@@@@@@@XXXXO@@@@@OOOOOXXXXXXXXOOOOO@@XXX@@",
"%+%%>%+XX+%XX%+XOOOOOO@@@&&  &&&&&  &&&&OOOOXXX  X  X  OOO@@% @@@@&&&&&&&&@@@@@&&&&@@@@@@@@XXXXXXXXOOOO@@@XXXXXXXOOOOOO@@@@@@@@@",
"XXXXXXXXX+%XX%+XOOOOOOOOOO&  --&&&& &-&@OOOXXXX  XXX   @@@&&  &&@@@@@@@@@@@@@@@@@@@@&&&&&&XXX@@@@@@@OOOOOOOOOXXXX@@@@@@@@@OO@@@@",
">%X+%+XXX+%XX%+X@@@@@@OOOOO  &----- @@@@@@OOOOO  OOOO  @@@@@  &&&&&@@@@@@@@@@&&&&@@@@@@XXXXXXXXXXXXXXXO@@@X@@@@@@@@@OOOOOOOOOO@X",
"XXXXXXXXX+%XX%+X@@@@@@OOOOO  OO.o.@ @oo..@@oo.O  oo..  @@@@X  X&&&&&&@@@@@&&&&&&&&&@@XXXXXXXXX@XXXXXXXXOX@@@@@@@@@@@@@@@@@@@@@XX",
"%%>+++XXX+%XX%+X@@@OOOOOO      .o    .o    .o    .o         ooooooo-&-----&-&&&&&XXXXXX@@@@&&&@@@XXXXXXXXXXX@@@&&&&&&&&&&&&&&XXX",
"X>>XXXXXX+%XX%+X@@@@@@@@@      .o    .o    .o    .o         o......&&&---&&&XXXXX@@XXX@@@@&&&XXXXXX@XXXXXXXXXXXX@@@&----&&&XXXXX",
"X+X+X+XXX+%XX%+XXX&&@@@@@      .o    .o    .o    .o         o......XXXXXXXXXXX@@@@XX@@@@&XXXXXX@XXX@@XXXXXXXXXXXXXX@@@XXXXXXXXXX",
"XXXXXXXXX+%XX%+X@XXX&&&&@      .o    .o    .o    .o         o......XXXXXXXXX@@@@@&@@&&&&XXX@@@@@XXX@@@@@XXXXXOOOOOOOO@XXXXXXXXXX",
"XXXXXXXXX+%XX%+XXXXXX---&      .o    .o    .o    .o         o......&&&&XXX@@@&@&&&&&&&&@@&&&@@@@@@@XXX@@XXX@@@XXXXXOO&@@@@@&&&@@",
"XXXXXXXXX+%XX%+X@@@@@@@@@      .o    .o    .o    .o         o......&&&----&&&&&---&&&&&&&@@@@@@@@@@XXXX@@&&@@@@@@@@@@&&&&&&&&@@@",
"XXXXXXXXX+%XX%+X@@@&&&@@@      .o    .o    .o    oo         o......&---;;;--;;;;&&&&&-------------@@@@@@&&&&&&&@@@@@@@@@&&&&@@@&",
"XX%X++>>+>>XX%+@&&&&&&@&&      .o    .o    .o    .o         o......&&&&&&&&&&&&&&&@@@@@@--;;;--@&&&&@@@@@@--@@&&&&----------&&&&",
"XXXXXXXXX+%XX%+&&&&&&&&&&                         .         o......-------------&&&&@@@@@@@@@@@&@@&&&&&&@@@@&&&&&&&&&&&&@@@@@@@@",
"XXXX%%+>+>>XX%+&&&&&&&&&&                                          &-;;;;;;;;--&&&&&&&&&&&&&&&&&@@@------&&&&&&&&&&&&&&&@&&&&&@&",
"XXXXXXXXX+%XX%+-                                          .o  .............................&&&&&&&&&---------------&&&&&&&&&&&&@",
"XX%%++>>>>>>X%+-      .  ...                              .o  .............................&&&&&&&&&&&&&&&-;;;--&&&&&&&&&&&&&&&&",
"XXXXXXXXX+%XX%+;      .  ...   %%>>>>>%%%    %%%>>%%%%%   .o  .............................&&----&&&&&&&&&&&&&&&&&&-------&&&&&&",
"XXXXX++>>>>XX%+&      .. ...                              .o  .............................;;;;-----&-&&&&&&&&&&&-;;;;;---------",
"XXXXXXXXX++XX%+-      ..  ..                              .o  ...          ..,,,,,,,,,,,...;;;---------&&&&---;;;;;;;;;;--------",
"XXXXXX++>>            .. ...                              .o  ...         o..,,,,,,,,,,,...-----------;;;;;---------------------",
"%%XXXXXXX+ >>>>>>>>>> .  ...                              .o  ...         o..,,,,,,,,,,,...---;;;;;;;;;;;;;;---------;;;;;;;;;--",
"%%XX++>+>> >%%%%%%%%>                                     .o              o..,,,,,,,,,,,   ;;;;;*************-----;;*****;;;;;;-",
"XXXXXXXXX+ >%%%%%%%%>.................................... .o  ooo         o..,,,,,,,,,,,ooo;-----;;;**====**--------------------",
"%X>XXXXXX+ >%%>%%>%%> .   .                               .o  ...         o..,,,,,,,,,,,...*;;;;;;;;;;;;;;;;;---;;;;;;----------",
"%X>XXXXXX+ >%>>>>>%%> .   .      oo.......                .o  ...         o..,,##,,,,,,,...;;;;;;;;;;;;;;;;;;;;;;;;;;;;;;;;;;;;;",
"X%XXXXXXX+ >%>>>>>%%> .   .      oo  .   .                .o              o..####,,,,,,,   ;;;;;;;;;;;;*;**;;;;***;*;-----;;;;;;",
"X%>XXXXXX+ >%%>%%>%%>            oo  .   .                .o  ooo         o..####,,,,,,,ooo**;;*;;*;*;****;*;;*;*;*;*&&&--;;;;;;",
"X%>XXXXXX+ >%%>>%>%%> .....ooo.. oo  .   .  .....ooooo    .o  ...         o..##########,...*****;********************-----;*;*;*",
"XXXXXXXXX+ >%%>>>>%%>   .. o . . o........    .. o o o    .o  .............................*=**=*=*=*=*=*=*****=*=*=*&&&--*=****",
">>%XXXXXX+ >%%>%%>%%> .... o.ooo oo  .   .  .... ooooo    .o  .............................=*==*=*=*=*------=&----=*=-----=*=*=*",
">>%XXXXXX+ >%%%%%%%%>   .. . . o oo  .   .    .. o o o    .o  ...,,,,,,,,,,..          o...===========&&&&--:&&&&-===&&&--====:=",
"XXXXXXXXX+ >%%%%%%%%> .ooo ..o.o oo.......  .... ooooo    .o  ...,,,,,,,,,,..          o...:=:&-:=:=:=&-----:&----:=:&&&--:=:=&-",
">+%XXXXXX+ >%%%%%%%%>                                     .o  ...,,,,,,,,,,..              ::=&-=:=:=:&&&&--:&&&&-=:=&&&--::=:&-",
">%%XXXXXX+ >%>>>>>>%>                                     .o  ...,,,,,,,,,,..          ooo.:::XXXXXXXXXXXXXXXX----:::&&&-&-:::&-",
"XXXXXXXXX+ >%%%>>>>%>..............................ooooooo.o  ...,,,,,,,,,,..          o...-::&&,X&X,X,X&X,X&X&&&-:&&&&&-&&-::&-",
"XXXXXXXXX+ >%%%%%>%%>....................................o.o  ...,,,,,,,,,,..          o...-::XXXXXXXXXXXXXXXX&&&-:&&&&&-&&-::&-",
"XXXXXXXXX+ >%%>>>>%%>                                    o.o  ...,,,,,,,,,,..             #-::X&,,,&&,,&,&,&&X&&&-:&&&&&-&&-::&-",
"XXXXXXXXX+ >%%%%%>%%>....................................o.o  ...###,,,,,,,..          ooo#&::XXXXXXXXXXXXXXXX&&&-&&&&&&-&&&::&&",
"+%X+XXXXX+ >%%%%%>%%>                                     .o  ...###,,,,##,..          o..#.......,&,,,@@@@&@X@@@&@&@@@@&@@&&&&&",
"+%X+XXXXX+ >%%>>>>%%>     .                               .o  ....########,..ooooooooooo..#.,,,,,,.XXXXXXXXXXX@@@&@&@@@@-@@&@@@&",
"XXXXXXXXX+ >%%%%%%%%> .  ...                              .o  ............................#.,,,,,,.@&,,X&&&&&X@@@&@@@@@@&@@@@@@&",
">>X>XXXXX+ >%%%%%%%%> .  ...   %%>>>>>>%%    %%%%>>>%%%   .o  ............................#.,>>>,,.XXXXXXXXXXX@@@@@@@@@@&@@@@@@@",
">>X>XXXXX+ >%%>%%%>%> .. ...                              .o  ............................#.,,,>,,.&,,,&,@@@@X@@@&@@@@@@@@@@@@@&",
"XXXXXXXXX+ >%%>%%%>%> ..  ..                              .o  ...         o..          o..#.,,,>,,.XXXXXXXXXXX@@@@@@@@@@@@@@@@@@",
"++XXXXXXX+ >%%>%>%>%> .. ...                              .o  ...         o..          o..#.,>>>,,.&&,&&,&,&&X@O@O@O@O@&@O@O@O@O",
"++XXXXXXX+ >%%>>>%>%> .  ...                              .o  ...         o..             #.,,,,,,.XXXXXXXXXXXO@O@O@O@&,&@O@O@O@",
"XXXXXXXXX+ >%%>%>%>%>                                     .o              o..          ooo#.,>>>,,.,,,,,,,,&,XOOOOOO@&,,,&OO@OOO",
"XXXXXX&XX+ >%%>>>>>%>.................................... .o  ooo         o..          o..#.,>,>,,.XXXXXXXXXXXO+O+O+O+&,&+O+O+O+",
"XXXXX&,&X+ >%%%%%%%%> .   .                               .o  ...         o..          o..#.,>,>,,.&&&&@@@@@&X+O+O+O+OX&+O+O+O+O",
"XXXXXX&XX+ >%%%%%%%%> .   .      oo.......                .o  ...         o..             #.,>,>,,.XXXXX@@@@XXO+++O+++XX++O+++O+",
"XXXXXXXXX+ >%%%>>>%%> .   .      oo  .   .                .o              o..          ooo#.,,,,,,.&&,,,,&&,&X++++++++XX++++++++",
"XXXXXXXXX+ >%>>>>>>%>            oo  .   .                .o  ooo         o..          o..#.,>,>,,.XXXXXXXXXXX$+$+$+$+XXXX$+$+$+",
"XXXXXXXXX+ >%%%%%%%%> .....ooooo oo  .   .  ......oooo    .o  ...oooooooooo..ooooooooooo..#.,>,>,,.@@X&@@@@&&X+$+$+$+$XX+X+$+$+$",
"%>>>>>>>>% >>>>>>>>>>   .. o . o .........    .. . o o    .o  ............................#.,>,>,,.XXXXXXXXXXX$+$+$+$+XX$X$+$+$+",
"%%%>>>%%%%            .... o.o.o oo  .   .  .... o.o.o    .o  ............................#.,>>>,,.@@X@@@@@@XX$$$$$$$$XX$X$$$$$$",
"XXXXXXXXX++XX++X        .. . . o oo  .   .    .. o o o    .o  ...##########..>>>>>>>>>>>..#.,,,,,,.XXXXXXXXXXX$$$$$$$$XX$X$$$$$$",
"XXXXXXXXX++XX++X      .ooo .oooo oo.......  .... ooooo    .o  ...##########..>>>>>>>>>>>..#.,>>>,,.>>>>X>>>>>>>$$$$$$$XX$X$$$$$$",
"XXXXXXXXX++XX++X                                          .o  ...##########..>>>>>>>>>>>..#.,>,,,,.&,&>X>&&&,&>XXXXXXXXXXXXXXXXX",
"XXXXXXXXX++XX++X                                          .o  ...##########..>>>>>>>>>>>..#.,>,,,,.,,&>X>&,&,&>$X$$X$$X$$X$$X$$X",
"XXXXXXXXX++XX++..................................ooooooooo.o  ...##########..>>>>>>%%%>>.##.,>,,,,.&,&>X,,,&,&>XXXXXXXXXXXXXXXXX",
"XXXXXXXXX++XX++..........................................o.o  ...##########..>>>>>>%%%>>###.,>>>,,.>>>>X>>>>>>>XXXXXXX,XXXXX&XXX",
"XXXXXXXXX++XX+                                           o.o  ...##########..%%%>>>%%%>>###.,,,,,,.XXXXXXXXXXXX+++++++++++++++++",
"XXXXXXXXX++XX+ ... ........................................o  ...##########..%%%%>>%%%%>#.........XXXXXXXXXXXXXXXXXXXXXXXXXXXXXX",
"XXXXXXXXX++XX++X ..  ....................................o.o  ...##########..          ooo$$$$X+XXXXXXXXXXXXXX$$$$X$X++X$X$$$$$$",
"XXXXXXXXX++XX++X                                          .o  ...##########..          o..XXXXX+XXXXXXXXXXXXXX$$$$X$X++X$X$$$$$$",
"XXXXXXXXX++XX++X          .                               .o  ...............ooooooooooo..X$$$X+XXXXXXXXXXXXXX$$$$X$X++X$X$$$$$$",
"XXXX>>>>X++XX++X      .  ...                              .o  ............................X$$$X+XXXXXXXXXXXXXX$$$$X$X++X$X$$$$$$",
"XXXX>XX>X++XXX+X      .  ...   %%>>>>>>%%    %%%%>>>%%%   .o  ............................X$$$X+XXXXXXXXXXXXXX$$$$X$X++X$X$$$$$$",
"XXXX$XX>X++XXX+X      .. ...                              .o  ............................X$$$X+XXXXXXXXXXXXXX$$$$X$X++X$X$$$$$$",
"XXXX$,,>X++XXX+X      ..  ..                              .o  ...         o..          o..XXXXX+XXXXXXXXXXXXXXXXXXXXX++XXXXXXXXX",
"XXXX>XX>XXXXXX+X      .. ...                              .o  ...         o..          o..XXXXXXXXXXXXXXXXXXXXXX&XXXX++XXXXXXXXX",
"XXXX>XX$XXXXXX+X      .  ...                              .o  ...         o..             XXXXXXXXXXXXXXXXXXXXX&,&XXX+XXXXXXXXXX",
"XXXX$,X$XXXXXXXX                                          .o              o..          oooXXXXXXXXXXXXXXXXXXXXXX&XXXX+XXXXXXXXXX",
"XXXX$,,>XXXXXXXX     .................................... .o  ooo         o..          o..X&&&&XXXXXXXXXXXXXXXXXXXXXX+XXXXXXXXXX",
"XXXX>,,>XXXXXXXX      .   .                               .o  ...         o..          o..X&,,&XXXXXXXXXXXXXXXXXXXXXXXXXXXXXXXXX",
"XXXX>XX>XXXXXXXX      .   .      oo.......                .o  ...         o..             X&,,&XXXXXXXXXXXXXXXXXXXXXXXXXXXXXXXXX",
"XXXX>X,>XXXXXXXX      .   .      oo  .   .                .o              o..          oooXXXXXXXXXXXXXXXXXXXXXXXXXXX+%%%%%%%%%%",
"XXXX>XX>XXXXXXXX                 oo  .   .                .o  ooo         o..          o..X,,,,XXXXXXXXXXXXXXXXXXXXXX+X++X+X+X+X",
"XXXX$,,>XXXXXXXX      .....ooooo oo  .   .  ......oooo    .o  ...oooooooooo..ooooooooooo..X&&&&XXXXXXXXXXXXXXXXXXXXXX%%%%%%%%%%%",
"XXXX>XX$XXXXXXXX        .. o . o .........    .. . o o    .o  ............................X,,,,XXXXXXXXXXXXXXXXXXXXXX%XXXXXXXXXX",
"XXXX>XX$XXXXXXXX      .... o.o.o oo  .   .  .... o.o.o    .o  ............................XXXXXXXXXXXXXXXXXXXXXXXXXXX%X,,,,X&,X,",
"XXXX>,,$XXXXXXXX        .. . . o oo  .   .    .. o o o    .o  ...######### ..>>>>>>>>>>>..X@@@@XXXXXXXXXXXXXXXXXXXXXX%X&,&&X&&X&",
"XXXX$,,>XXXXXXXX      .ooo .oooo oo.......  .... ooooo    .o  ...######### ..>>>>>>>>>>>..X@@@@XXXXXXXXXXXXXXXXXXXXXX+XXXXXXXXXX",
"XXXX$,X$XXXXXXXX                                          .o  ...######### ..>>>>>>>>>>>..X@@@@XXXXXXXXXXXXXXX$XXXXXX++%%%+%%+%%",
"XXXX$XX$XXXXXXXX                                          .o  ...######### ..>>>>>>>>>>>..XXXXXXXXXXXXXXXXXXX$>$XXXXX+XX+XX+X+XX",
"XXXX$>>$%XXXXXX..................................ooooooooo.o  ...######### ..%>>>>>%%%>>. X&&&&XXXXXXXXXXXXXXX$XXXXXX++%%++%%%+%",
"XXXXXX@XXXXXXXX..........................................o.o  ...######### ..%%%%%>%%%>>  X@@@@XXXXXXXXXXXXXXXXXXXXXX+XXXXXXXXXX",
"XXXXX@&@XXXXXX                                                                            X@@@XXXXXXXXXXXXXXXXXXXXXXX+X&&&&X&&X&",
"XXXX@@@@@@@@@@@@@@@@@@@@@@@@@@@@@@@@@@@@@@@@@@@@@@@@@@#########################################XXXXXXXXXXXXXXXXXXXXXX+X&,,&X&&X&",
"XXXXX@@@@@@@@@@@@@@@@@@@@@@@@@@@@@@@@@@@@@@@@@@@@@@@@@############,############################XXXXXXXXXXXXXXXXXXXXXX+XXXXXXXXXX",
"XXXXX@@@@@@@@@@@@@@@@@@@@@@@@@@@@@@@@@@@@@@@@@@@@@@@@@,,,####,#,,,#,#,#########################XXXXXXXXXXXXXXXXXXXXXX++%%%+%+%%+",
"XXXXX#################################################,,,,,,,,,,,,,,,,,,,,,,,,,,,,,,,,,,,,,,,,,XXXXXXXXXXXXXXXXXXXXXX+XXXXXXXXXX",
"XXXXX       .              .              .                                                    XXXXXXXXXXXXXXXXXXXXXX+++++++++++",
"XXXXX       .              .              .           ........ ................................XXXXXXXXXXXXXXXXXXXXXX+XXXXXXXXXX",
"XXXXX       .         @@   .              .           ........ ................................XXXXXXXXXXXXXXXXXXXXXXXXXXXXXXXXX",
"XXXXX       .     @@@@@@   . @@           .           ........ ................................XXXXXXXXXXXXXXXXXXXXXXXXXXXXXXXXX",
"XXXXX       .    @@@@@@@   . @@@@@        .           ........ ................................XXXXXXXXXXXXXXXXXXXXXXXXXXXXXXXXX",
"XXXXX       .    @@@@@@    . @@@@@        .           ........ ................................XXXXXXXXXXXXXXXXXXXXXXXXXXXXXXXXX",
"XXXXX       .   @@@@       . @@##@        .           ........ ................................XXXXXXXXXXXXXXXXXXXXXXXXXXXXXXXXX",
"XXXXX       #   @@@@ ,,,###,, @##@        #           ........ ................................XXXXXXXXXXXXXXXXXXXXXXXXXXXXXXXXX",
"XXXXX       #   @@@@ ,%%%%%%, @##@        #           ........ ................................XXXXXXXXXXXXXXXXXXXXXXXXXXXXXXXXX",
"XXXXX       #    @@  ,%>>>%%, @@#@        #           ........ ................................XXXXXXXXXXXXXXXXXXXXXXXXXXXXXXXXX"
};
