/* XPM */
static char *fd2a54732fb94b47dcf209a5505c4a3c0NQAb8ynyyPWyhE0[] = {
/* columns rows colors chars-per-pixel */
"128 128 17 1 ",
"  c #050912",
". c #031325",
"X c #00003C",
"o c #072B3A",
"O c #010350",
"+ c #040C5A",
"@ c #21004B",
"# c #320D4E",
"$ c #0B347F",
"% c #540052",
"& c #FC583A",
"* c #F07C36",
"= c #880C4F",
"- c #EC1E44",
"; c #DE9A41",
": c #177DAA",
"> c #9B0C8E",
/* pixels */
"XXXXXXXXXXXXXXXXXXXXXXXXXXXX+OXXXXXXXXXXXXXXXXXX$XXXXXXXXXXXXXXXXXX+XOXXXXXXXXXXXXXXXXXXXXXXXXXXOO+XXXXXXXXXXXXXXXXXXXXXXXOXXXXX",
"XXXXXXXXXXXXXXXXXX$XXXXXXXX+$+XXXXXXXXXXXXXXXXXXXXXXXXXXXXXXXXXXXXX+XOXXXXXXXXXXXXXXXXXXXXXXXXXXXX+XXXXXXXXXXXXXXXXXXXXXXXXXXXXX",
"XXXXXXXXXXXXXXXXXXXXXXXXXX+$:$+XXXXXXXXXXX:XXXXXXXXXXXXXXXXXXXXXXX+XXXXXXXXXXXXXXXXXXXXXXXXXXXXXXXX+XXXXXXXXXXXXXXXXXXXXXXXXXXXX",
"XXXXXXXXXXXX:XXXXXXXXXXXXXX+$+XXXXXXXXXXXXXXXXXXXXXXXXXXXXXXXXXXXXOXXXXXXXXXXXXXXXXXXXXXXXXXXXXXXXX+XXXXXXXXXXOXXXXXXXXXXXXXXXXX",
"XXXXXXXXXXXXXXXXXXXXXXXXXXXX+XXXXXXXXXXXXXXXXXXXXX$XXXXXXXXXXXXXXXOXXXXXXXXXXXXXXXXXXXXXXXXXXXXXXXXOXXXXXXXXXXXXXXXXXXXXXXXXXXXX",
"XXXXXXXXXXXXXXXXXXXX$XXXXXXXXXXXXXXXXXXXXXXXX$XXXXXXXXXXXXXXXXXXXXOXXXXXXXXXXXXXXXXXXXXXXXXXXXXXXXXOXXXXXXXXXXXXXXXXXXXXXXXXXXXX",
"XXXXXXXXXXXXXXXXXXXXXXXXXXXXXXXXXXXXXXXXXXXXX:XXXXXXXXXXXXXXXXXXXX+XXXXXXXXXXXXXXXXXXXXXXXXXXXXXXXX+XXXXXXXXXXXXXXXXXXXXXXXXXXXX",
"XXXXXXXXXXXXXXXXXXXXXXXXXXXXXXXXXXXXXXXXXXXX$:$XXXXXXXXXXXXXXXXXXX+XXXXXXXXXXXXXXXXXXXXXXXXXXXXXXXX+XXXXXXXXXXXXXXXXXXXXXXXXXXXX",
"XXXXXXXXXXXXXXXXXXXXXXXXXXXXXXXXXXXXXXXXXX$::;::$XXXXXXXXXXXXXXXXX+XXXOXXXXXXXXXXXXXXXXXXXXXXXXXOXO+XXXXXXXXXXXXXXXOXXXXXXXXXXXX",
"XXXXXXXXXXXXXXXXXXXXXXXXXXXXXXXXXXXXXXXXXXXX$:$XXXXXXXXXXXXXXXXXXX$+OXOOXXXXXXXXXXXXXXXXXXOXXXXXOX++XXXXXXXXXXXXXXXXXXXXXXXXXXXX",
"XXXXXXXXXXXXXXXXXXXXXXXXXXXXXXXXXXXXXXXXXXXXX:XXXXXXXXXXXXXXXXXXXXX+OXXOXXXXXXXXXXOOXXXXXOOXOXXOOX$XXXXXXXXXXXXXXXXXXXXXXXXXXXXX",
"XXXXXXXXXXXXXXXXXXXXXXXXXXXXXXXXXXXXXXXXXXXXO$XXXXXXXXXXXXXXXXXXXXX$OO+OOXOOOOXXOOOXXXOO++XOOOXOOO+XXXXXXXXXXXXXXXXXXXXXXXXXXXXX",
"XXXXXXXXXXXXXXXXXXX%XXXXXXXXXXXXXXXXXXXXXXXXXXXXXXXXXXXXXXXXXXXXXXX$+OO++OXOOOOOOXXXXO++OXXOOO++++$XXXXXXXXXXXXXXXXXXXXXXXXXXXXX",
"XXXXXXXXXXXXXXXXXXXXXXXXXXXXXXXXXXXXXXXXXXXXXXXXXXXXXXXXXXXXXXXXXXXX$+OX++OXXXXOOOOO+++OXXOO+++++$XXXXXXXXXXXXX+XXXXXXXXXXXXXXXX",
"XXXXXXXXXXXXXXXXXXXXXXXXXXXXXXXXOXXXXXXXXXXXXXXXXXXXXXXXXXXXXXXXXXXX$++OO+OOOOXOOOOOXXXXXOO+++$+$$XXXXXXXXXXXX+$+XXXXXXXXXXXXXXX",
"XXXXXXXXXXXXXXXXXXXXXXXXXXXXXXXXXXXXXXXXXXXXXXXXXXXXXXXXXXXXXXXXXXXXX$+OOOX++O+++XXXXXXOOO+O+$+$$XXXXXXXXXXXX+$:$+XXXXXXXXXXXXXX",
"XXXXXXXXXXXXXXXXXXXXXXXXXXXXXXXXXXXXXXXXXXXXXXXXXXXXXXXXXXXXXXXXXXXXXX$+$++++++++OXOOOOOO+++$+$$XXXXXXXXXXXXXX+$+XXXXXXXXXXXXXXX",
"XXXXXXXXXXXXXXXXXXXXXXXXXXXXXXXXXXXXXXXXXXXXXXXXXXXXXXXXXXXXXXXXXXXXXX$$+$++O++++O++++++++$$+$$$XXXXXXXXXXXXXXX+XXXXXXXXXXXXXXXX",
"XXXXXXXXXXXXXXXXXXXXXXXXXXXXXXXXXXXXXXXXXXXXXXXXXXXXXXXXXXXXXXXXXXXXXXX$$+$$+OOOO++++++$$$$$:$$XXXXXXXXXXXXXXXXXXXXXXXXXXXXXXXXX",
"XXXXXXXXXXXXXXXXXXXXXXXXXXXXXXXXXXXXXOXXXXXXXXXXXXXXXXXXXXXXXXXXXXXXXXXXX$::+$$+O$$$$+$$$$::$XXXXXXXXXXXXXXXXXXXXXXXXXXXXXXXXXXX",
"XXXXXXXXXXXXXXXXXXXXXXXXXXXXXXXXXXXXXXXXXXXXXXXXXXXXXXXXXXXXXXXXXXXXXXXXXX$$:::+$$:::$$:::$$XXXXXXXXXXXXXXXXXXXXXXXXXXXXXXXXXXXX",
"XXXXXXXXXXXXXXXXXXXXXXXXXXXXXXXXXXXXXXXXXXXXXXXXX;XXXXXXXXXXXXXXXXXXXXXXXXXX$$$$::::::::$$XXXXXXXXXXXXXXXXXXXXXXXXXXXXXXXXXXXXXX",
"XXXXXXXXXXXXXXXXXXXXXXXXXXXXXXXXXXXXXXXXXXXXXXXXXXXXXXXXXXXXXXXXXXXXXXXXXXXXXXX$$$$$$$$XXXXXXXXXXXXXXXXXXXXXXXXXXXXXXXXXXXOXXXXX",
"XXXXXXXXXXXXXXXXXXXXXXXXXXXXXXXXXXXXXXXXXXXXXXXXXXXXXXXXXXXXXXXXXXXXXXXXXXXXXXXXXXXXXXXXXXXXXXXXXXXXXXXXXXXXXXXXXXXXXXXXXXXXXXXX",
"XXXXXXXXXXXXXXXXXXXXXXXXXXXXXXXXXXXXXXXXXXXXXXXXXXXXXXXXXXXXXXXXXXXXXXXXXXXXXXXXXXXXXXXXXXXXXXXXXXXXXXXXXXXXXXXXXXXXXXXXXXXXXXXX",
"XXXXXXXXXXXXXXXXXXXXXXXXXXXXXXXXXXXXXXXXXXXXXXXXXXXXXXXXXXXXXXXXXXXXXXXXXXXXXXXXXXXXXXXXXXXXXXXXXXXXXXXXXXXXXXOXXXXXXXXXXXXXXXXX",
"XXXXXXXXXXXXXXXXXXXXXX$XXXXXXXXXXXXXXXXXXXXXXXXXXXXXXXXXXXXXXXXXXXXXXXXXXXXXXXXXXXXXXXXXXXXXXXXXXXXXXXXXXXXXXXXXXXXXXXXXXXXXXXXX",
"XXXXXXXXXXXXXXXXXXXXXXXXXXXXXXXXXXXXXXXXXXXXXXXXXXXXXXXXXXXX@XXXXXXXXXXXXXXXXXXXXXXXXXXXXXXXXXXXXXXXXXXXXXXXXXXXXXXXXXXXXXXXXXXX",
"XXXXXXXXXXXXXXXX:XXXXXXXXXXXXXXXXXXXXXXXXXXXX    XXXXXXXXXXX#XXXXXXXXXXXXXXXXXXXXXXXXXXXXXXXXXXXXXXXXXXXXXXXXXXXXXXXXXXXXXXXXXXX",
"XXXXXXXXXXXXXXXXXXXXXXXXXXXXXXXXXXXXXXXXXXX          XXXXXX@#@XXXXXXXXXXXXXXXXXXXXXXXXXXXXXXXXXXXXXXXXXXXXXXXXXXXXXXXXXXXXXXXXXX",
"XXXXXXXXXXXXXXXXXXXXXXXX$XXXXXXXXXXXXXXXX     ...         @#>#@XXXXXXXXXXXXXXXXXXXXXXXXXXXXXXXXXXXXXXXXXXXXXXXXXXXXOXXXXXXXXXXXX",
"XXXXXXXXXXXXXXXXXXXXXXXXXXXXXXXXXXXXXXXXX    o....  ..   @#>>>#@XXXXXXXXXXXXXXXXXXXXXXXXXXXXXXXXXXXXXXXXXXXXXXXXXXXXXXXXXXXXXXXX",
"XXXXXXXXXXXXXXXXXXXXXXXXXXXXXXXXXXXXXXX     o.......  ..   @>#@XXXXXXXXXXXXXXXXXXXXXXXXXXXXXXXXXXXXXXXXXX$XXXXXXXXXXXXXXXXXXXXXX",
"XXXXXXXXXXXXXXXXXXXXXXXXXXXXXXXXXXXXXXX   oo.........   .  @#@XXXXXXXXXXXXXXXXXXXXXXXXXXXXXXXXXXXXXXXXXXXXXXXXXXXXXXXXXXXXXXXXXX",
"XXXXXXXXXXXXXXXXXXXXXXXXXXXXXXXXXXXXXX    oo...........  .  @XXXXXXXXXXXXXXXXXXXXXXXXXXXXXXXXXXXXXXXXXXXXXXXXXXXXXXXXXXXXXXXXXXX",
"XXXXXXXXXXXXXXXXXXXXXXXXXXXXXXXXXXXXXX   oo..  .........     XXXXXXXXXXXXXXXXXXXXXXXXXXXXXXXXXXXXXXXXXXXXXXXXXXXXXXXXXXXXXXXXXXX",
"XXXXXXXXXXXOXXXXXXXXXXXXXXXXXXXXXXXXXX   oo...   ........  .  XXXXXXXXXXXXXXXXXXXXXXXXXXXXXXXXXXXXXXXXXXXXXXXXXXXXXXXXXXXXXXXXXX",
"XXXXXXXXXXXXXXXXXXXXXXXXXXXXXXXXXXXXXX   oo.....  ......   .. XXXXXXXXXXXXXXXXXXXXXXXXXXXXXXXXXXXXXXXXXXXXXXXXXXXXXXXXXXXXXXXXXX",
"XXXXXXXXXXXXXXXXXXXXXXXXXXXXXXXXXXXXXX   oo.......  ...  .. .  XXXXXXXXXXXXXXXXXXXXXXXXXXXXXXXXXXXXXXXXXXXXXXXXXXXXXXXXXXXXXXXXX",
"XXXXXXXXXXXXXXXXXXXXXXXXXXXXXXXXXXXXX    oo........ ..  ..oo   XXXXXXXXXXXXXXXXXXXXXXXXXXXXXXXXXXXXXXXXXXXXXXXXXXXXXXXXXXXXXXXXO",
"XXXXXXXXXXXXXXXXXXXXXXXXXXXXXXXXXXXXX    oo.........   ....o    XXXXXXXXXXXXXXXXXXXXXXXXXXXXXXXXXXXXXXXXXXXXXXXXXXXXXXXXXXXXXXXX",
"XXXXXXXXXXXXXXXXXXXXXXXXXXXXXXXXXXXXX    oo.........  .....oo   XXXXXXXXXXXXXXXXXXXXXXXXXXXXXXXXXXXXXXXXXXXXXXXXXXXXXXXXXXXXXXXX",
"XXXXXXXXXXXXXXXXXXXXXXXXXXXXXXXXXXXXX    ooo....... .. .....o   XXXXXXXXXXXXXXXXXXXXXXXXXXXXXXXXXXXXXXXXXXXXXXXXXXXXXXXXXXXXXXXX",
"XXXXXXXXXXXXXXXXXXXXXXXXXXXXXXXXXXXXX     oo.....  ...  ....oo  XXXXXXXXXXXXXXXXXXXXXXXXXXXXXXXXXXXXXXXXXXXXXXXXXXXXXXXXXXXXXXXX",
"XXXXXXXXXXXXXXXXXXXXXXXXXXXXXXXXXXXXX     ooo..   ..... ....oo  XXXXXXXXXXXXXXXXXXXXXXXXXXXXXXXXXXXXXXXXXXXXXXXXXXXXXXXXXXXXXXXX",
"XXXXXXXXXXXXXXXXXXXXXXXXXXXXXXXXXXXXX      oo    ......  ..ooo  XXXXXXXXXXXXXXXXXXXXXXXXXXXXXXXXXXXXXXXXXXXXXXXXXXXXXXXXXXXXXXXX",
"XXXXXXXXXXXXXXXXXXXXXXXXXXXXXXXXXXXXXX     o    ........ ..oo   XXXXXX>XXXXXXXXXXXXXXXXXXXXXXXXXXXXXXXXXXXXXXXXXXXXXXXXXXXXXXXXX",
"XXXXXXXXXXXXXXXXXXXXXXXXXXXXXXXXXXXXX...       o........ oooo  XXXXXXX XXXXXXXXXXXXXXXXXXXXXXXXXXXXXXXXXXXXXXXXXXXXXXXXXXXXXXXXX",
"XXXXXXXXXXXXXXXXXXXXXXXXXXXXXXo.    oo...      oooo.....oooo   XXXXOOO XXXXXXXXXXXXXXXXXXXXXXXXXXXXXXXXXXXXXXXXXXXXXXXXXXXXXXXXX",
"XXXXXXXXXXXXXXXXXXXXXXXXXXXXoo.     oo....      ooooooooooo    OOOOOOO OXOOOXXXXXXXXXXXXXXXXXXXXXXXXXXXXXXXXXXXXXXXXXXXXXXXXXXXX",
"XXXXXXXXXXXXXXXXXXXXXXXXXXXoo.  #OOoo.....      ooooooooooo    XXXOOOO   OOOOOOOXXXXXXXXXXXXXXXXXXXXXXXXXXXXXXXXXXXXXXXXXXXXXXXX",
"XOOOOOXOOOOOOXXXXXXXXXXXXXoo.  #XXXo.....          oooooo     XXXXXXXO   @@@@@OOOOOXXXXXXXXXXXXXXXXXXXXXXXXXXXXXXXXXXXXXXXXXXXXX",
"XXOOOOOOOXXXXXXXXXXXXXXXXXo.. #XXXXo....#X#                 #XXXX        @@@@OOOOOOXXXXXXXXXXXXXXXXXXXXXXXXXXXXXXXXXXXXXXXXXXXXX",
"XXXXXXOOOOXXXXXXXOOOOOOOOO.. #XXOOOo.   #XX..              #XXXXO.oo.     XXXXXXXXXXXXXXXXXXXXXXXXXXXXXXXXXXXXXXXXXXXXXXXXXXXXXX",
"XXXXXXXXXXXXXXXXXXXXXXOOOO.. #OOOOXo.   #XOO##.          ##XXXXXX   . > > XXXXXXXXXXXXXXXXXXXXXXXXXXXXXXXXXXXXXXXXXXXXXXXXXXXXXX",
"XXXXXXXXXXXXXXXXXXXXXOOO@@   # OXXX     #XXXXX###......##.XXXXXXX.o..     XXXXXXXXXXXXXXOOOOOOOOXXXXXOOOOOXXXXXXOOOOOXXXXXXXXXXX",
"XOOOXXXXXXXXXXXXXXXXXXXX@@@    @XXX..   #XXXXXX  #######XX      X     # # XXXXXXXXXXXXXXXXO@@@@OOOXXXXXOOOOOOOXXXOOOOOOXXXXXXXXX",
"XOOOOOOOXXXXXXXXXXXXXXXXXXXX    XXX..    OXXXXO       OOXX #>># O....  #  XXXXXXXXXXXXXXXXXXXXXXXXXXXXXXXXXXXXXXXXXXXXXXXXXXXXXX",
"OOOOOOOOOOXXXXXXXXXXXXX            ..                              .   #    XXXXXXXXXXXXXXOOXXXXXXXXXXXXXXXXXXXXXXXXOOOXXXXXXXXX",
"OOOOOOOOOOOOOXXOOOXXXXX            ..                              .        OOOXXXXOOOXXXOOOXXXXXXXXXXXXXXXXXXXOOOOOOOOOXXXXXXXX",
"OXXOOOOOOOOOOOOOOOOOOOO            ..                                       OOOOOOOOOOOOOOOOXXXXXXXXXXXXXXXXXXXXXXXXXOOXXXXXXXXX",
"XXXXX@@@@@@@@@OOOOOOOOO            .                                        @@OOOOOOXOOOOOXXXXXXXXXXXXXXXXXXXOOXXXXXXXXXXXXXXXXX",
"XXXXXXO@@@@@@@O@@@OOOOO                                                     @@@@@XXXXXXXXXXXXXXXXXXXXXXXXOOOOOOOOOOOOOOOOXXXXXXX",
"XXXXXXX@@@@@@@@XXXXXXXX         #                                             XXXXXXXXXXXXXXXXXXXXXXXXXXXXOOOOOOOOOOOOXXXXXXXXXX",
"XXXXXXXXXXXXXXXXXXXXXXX >##> >  >   >>>###            ... ......................XXXXXXXXXXXXXXXXXXXXXXXXOOOOOOOOOOOOOOOOXXXXXXXX",
"XXXXXXXXXXXXXXXXXXXXXXX >  > >  >> >>>#         oooooooo. ......................XXXXXXXXXXXOOOOOXXXXXXXXXXOOOOOXXXXXXXOOXXXXXXXX",
"XXXXXXXXXXXXXXXXXXXOOOX >>># >>  >  > > #       .......o. :::::::::::::::::::...XXXXXXXXOOOOOOOOOOOXXXXXXXXXXXXXXXXXXXXXXXXXXXXX",
"XXXXXXXXXXXXXXXXXXXOOOO    # >  >>  # > #>>##          .  $$$$$$$$:$:$$$$$$$$$..OOOOOXXXXOOOOOOOXXXXXXXXXXXXXXXXOXXXXXXXXXXXXXXX",
"XXXXXXXXXXXXXXX@@X@@@OO  #>> ># >   # >                  .::::::::::::::::::::..OOOOOOOOXXXOOOXXXXXXXXXXXXOOOOOOOOXXXXXXXXXXXXXX",
"XXXXXXXXXXXXXXXXO@@@O:@                                ...$$$::::$$:::::$$$$$$..OOOOOOOOOOOOOOXXXXXXXXXXXXXXXXXXOOOOXXXXXXXXXXXX",
"XXXXXXXXXXXXXXOOOOOO@::   .                             ..::::::::::::::::::::..XXXOOOOOXXXXXXXXXXXXXXXXXXXXXXXXXXOOOXXXXXXOXXXX",
"XXXXXXXXXXXXXXXXXXXXX:::  .  ...............             .$$$$$$$$$$$:::$$$$$$..XXXXXXXXXXXXXXXXXXXOOOOOOXXXXXXXOOOOOOOXXXOOOXXX",
"XXOOOOOOOXXXXXXXXXXXX:::  .               ..    oooooooo .::::::::::::::::::::..XXXXXOOOXXXXXXXXXOOOOOOOOOOOXXXOOOOOXOOOOOOOOXXX",
"XXXXXOOOOOOOXXXXXXXXX$$$  .....            .    .......o .:$$$$:::::$$$$$$$:$$..XOOOOOOOOOOOOOOXOOOOOOOOOOO@OOOOOOOXXXOOOOOOOOOO",
"XXXXXXXXXXOOOXXXXXXOO:::          .ooooo   .             .::::::::::::::::::::..XXXXXXOOO@@OOOOOOOOOOO@@OO@@OOOOOXXXXXXXXXXXXXXX",
"XXXXXXXXOOOOOOOOXXXXO:::        ......oo.               ..$$$$$$$$$$$$:$$$$$$$..XXXXXXXOOO@@@@@@O@@@@@@@@@OOOO@@@XXXXXXXXXXXXXXX",
"XXXXXXXXX@@@@@@OOO@@@:::     .  .....oooo.             . .::::::::::::::::::::..XXXXXXXXXOOOO@@@%@%%%%%@%%@@@@@@XXXXXXXXXXXXXXXX",
"XXXXXXXX@@@@@@@@OO@@@$$$    oo. .......oo..     oooooooo .$$$:::::$$$$$$$$$$$$..OXXXOOOOOOOOOXXX@@@@@XXXXXX@XXXXXXXXXXXXXXXXXXXX",
"XXXXXXX@@@@@@@@@@@@@@:::   ooo.  .......o...    .......o .::::::::::::::::::::..OOOOOOOO@@@OOXXXXXXXXXXXXXXXXXXXXXXXXXXXXXXXXXXX",
"XXXXXX@@%@%%%%%%%%%%%:::  oooo.. .......o...             .$$$$$$$$$:::::$$$:$$..@@@@@@@@@@@@@@@@XXOOOXXXXXXXXXXXXXXXXXXXXXXXXXXX",
"XXXXX@OO@@@=%===%==OO:::  ......      ...... ..         ..::::::::::::::::::::..@@@@@@@@@@@@@@@@XXXOOOOOOOOXXXXXXXXXXXXXXXXXXXXX",
"OOOOOOOOOO@OO@@==@@OO:::  .....         ..  ....        ..$$$$$$$$$$$$$$$$$$$...%@@@@@@@@@@@@XXXXO@@@@@OOOOOXXXXXXXXOOOOO@@XXX@@",
"@@@@@@@@OOOOOOOOOOOOOO@:   ...          .  .oo...       ........................%%%@@@@@@@@XXXXXXXXOOOO@@@XXXXXXXOOOOOO@@@@@@@@@",
"@@@@@@@@@@@OOOOOOOOOOOO                   ..ooo..                          .....@@@@%%%%%%XXX@@@@@@@OOOOOOOOOXXXX@@@@@@@@@OO@@@@",
"X@@@@@@@@@@@@@                            @..ooo..                          @%%%%@@@@@@XXXXXXXXXXXXXXXO@@@X@@@@@@@@@OOOOOOOOOO@X",
"XXXXXXXXX@@@@@ oooo......ooooo.           @@.ooo.                           %%%%%%%@@XXXXXXXXX@XXXXXXXXOX@@@@@@@@@@@@@@@@@@@@@XX",
"XXXXXXXXXXX@@@ o             o. ...       .@@o... .           >>>>>>>>>>>>> %%%%%XXXXXX@@@@%%%@@@XXXXXXXXXXX@@@%%%%%%%%%%%%%%XXX",
"XXXXX@@@XXXXXX o ####@@#>>## o.            .@@.. ...         >@@@@@@@@@@@@> XXXXX@@XXX@@@@%%%XXXXXX@XXXXXXXXXXXX@@@%====%%%XXXXX",
"XXX%%@@@@@@XXX .             o. ...         .@  ..o..        >@@@@@@>@>@>@> XX@@@@XX@@@@%XXXXXX@XXX@@XXXXXXXXXXXXXX@@@XXXXXXXXXX",
"XXXXX%%%%%@%%% . #>###>>>##@ ..                ..@oo..       >@@@@@@>@>@>@> @@@@@%@@%%%%XXX@@@@@XXX@@@@@XXXXXOOOOOOOO@XXXXXXXXXX",
"@@@XXXX%===%%% .             .. ...           ...@@oo.o....   >>>>>>>>>>>>> @%@%%%%%%%%@@%%%@@@@@@@XXX@@XXX@@@XXXXXOO%@@@@@%%%@@",
"@@@XXXX@@@@=@@ . #@#>>##>>>> ..               ....o@ooo.....         ..     %:%===%%%%%%%@@@@@@@@@@XXXX@@%%@@@@@@@@@@%%%%%%%%@@@",
"%@%%%%@@@@@@@@ .             .. ...             ..@@@@ooo....        ..     :::-%%%%%=============@@@@@@%%%%%%%@@@@@@@@@%%%%@@@%",
"@@%%%@%%%%%@@@ . #@@@>>>>##> ..                   ..@@@......        ..   ..$:::%%@@@@@@==---==@%%%%@@@@@@==@@%%%%==========%%%%",
"@@@@%%%%%%%%%%                  ...                 ..@@.....        ..    ::$:::%%%@@@@@@@@@@@%@@%%%%%%@@@@%%%%%%%%%%%%@@@@@@@@",
"@%@%@%%%%%===%%%                                      .@.....  ........    :::$:::%%%%%%%%%%%%%%@@@======%%%%%%%%%%%%%%%@%%%%%@%",
"%@%%%%%==========   .     ...oooooooo.        ......     ...  ..#####.    ::::$:::%%%%%%%%%%%%%%%%%%===============%%%%%%%%%%%%@",
"%%%%%%%%%=========  .   .....####......      ........         .           $::::$::%%%%%%%%%%%%%%%%%%%%%%%%=---==%%%%%%%%%%%%%%%%",
"%%%%%%%%%%%%%---=== .>>>.            ..      .                .          ::$::::$%%=======%%%====%%%%%%%%%%%%%%%%%%=======%%%%%%",
"%=%%%%%%%%%%%%%%%=->>>>>.    ....... .. .o.. . ......... .. . . ..       :::$$:::=---=---------=====%=%%%%%%%%%%%=-----=========",
"=%=%=%%%%%-======%>>>>>>.     ...... .. .oo. . oooooooo. .. . . ..         :::$::===---&&&&---=========%%%%===----------========",
"=======-==---==--->>>>>>..    ...... .. .... . ......... .. . . ..          :::$======================-----=====================",
"=====------------->>>>>>..  ........ ..      .        .. .. . . ...........  :::------========--------------=========---------==",
"=====--&----&&&&-->>>>>>..   ....... .# .... . ....... . .. . . ..@@@@...... .. --======--------&&&&&&&&&&&&&=====--&&&&&------=",
"=-=-=---&&&&&&&&&&>>>>>>.. .. ...    .#      .      #. . .. . .              .. ------------=====---&&****&&====================",
"----------&*******>>>>>>.. ..... ...### .... . . .   # . .. . . .........@..... &&&------&&&-----------------===------==========",
"------------------>>>>>>..   ... ...    .... . . . . # . .. . . ....####@@....  &&&&&&&&&&--------------------------------------",
"------------------>>>>>>..  .... ..  ......##. . . . #   @  . . ...#          -*****-=====-------------&-&&----&&&-&-=====------",
"-----------&-&&--->>>>>>..   ... .. ...##### # . . . # ..@ .. . ..@#  ..... --&&&&&&&%%%==&&&--&--&-&-&&&&-&--&-&-&-&%%%==------",
"-&-&-&&&-&&-&&&&-&>>>>>>..  .... .. ...      # . . . . ... .. . ..@#   .... &&&&&&&&&=====&&&&&&-&&&&&&&&&&&&&&&&&&&&=====-&-&-&",
"&&&-*&&*&&*&&&&*&*&>&>>>..    .. .. ..  .....# . . . . ... .  . ..@#        &*&*&&*&*%%%==*&*&&*&*&*&*&*&*&&&&&*&*&*&%%%==&*&&&&",
"&&**&*======&%====*>>>>>..   ... .. .. ...    ..   . .       .. ..@#  ....... ====&*&=====&*&**&*&*&*&======*%====*&*=====*&*&*&",
"***;*;%%%%==*%%%%=***>>>.   .... .. .. ..  ....   .. . ........ ..@#          %%%=***%%%==************%%%%==;%%%%=***%%%==****;*",
";*;*;*%=====;%====;*;%%      ... .. .. .. .....   .. .         ...@.   ...... ====*;*%%%==*;*;%=;*;*;*%=====;%====;*;%%%==;*;*%=",
"*;*;;;%%%%==*%%%%=*;*%%       .. .. .. .. ....    .. . .............  ....... %%%=;*;%%%==;;;*%=*;*;*;%%%%==;%%%%=*;*%%%==;;*;%=",
";;;;;;%=====;%====;                                                           ====;;;%%%=%=;;;%=;;;;;;%=====;%====;;;%%%=%=;;;%=",
";;%=;;%%%%= ...ooooooooooooooooooooooooooooooooooooooooooooooooooooooooooooooooooooooo..=%%=;;%=;;%=;;%%%%==;%%%%=;%%%%%=%%=;;%=",
";;%=;;%==== .................. o..................................o ....................=%%=;;%=;;%=;;%======%%%%=;%%%%%=%%=;;%=",
";;%=;;%%%%== ................. .o.................................o ..................@%=%%=;;%=;;%=;;%%%%===%%%%=;%%%%%=%%=;;%=",
";;%%;;%%%%== .................. o................................o ..................@@%=%%%;;%%;;%%;;%%%%===%%%%=%%%%%%=%%%;;%%",
"%%%%%%%%%%%%= ................. .o...............................o .................@@@@%@@%%%%%%%%%%%%%%%%%=%@@@%@%@@@@%@@%%%%%",
"@@@@@%%%%%%%=@.................. o..............................o ................@@@@@@=@@%@@@%@@@@@%%%%%%%=@@@@%@%@@@@=@@%@@@%",
"@@@@@@@@@@@@%@.................. .o...........@..........@......o .@.....@.......@@@@@@@%@@@@@@%@@@@@@@@@@@@%@@@@%@@@@@@%@@@@@@%",
"@@@@@@@@@@@@@@@......@....@...... o@@@.......@@@@.@@@@@@@@.....o .@@@@@@@@@.@@@.@@@@@@@@%@@@@@@@@@@@@@@@@@@@@@@@@@@@@@@@%@@@@@@@",
"@@@@@@@@@@@@%@@...@@.@@...@@@@@@@ oo@@..@@.@@@@@@@@@@@@@@@.@...o .@@@@@@@@@@@@@@@@@@@@@@@@@@@@@%@@@@@@@@@@@@%@@@@%@@@@@@@@@@@@@%",
"@@@@@@@@@@@@@@@@.@@@@@@.@.@@@@@@@@ .@@@@@@@@@@@@@@@@@@@@@@@@..o @@@@@@@@@@@@@@@@@@@@@@@@@@@@@@@@@@@@@@@@@@@@@@@@@@@@@@@@@@@@@@@@",
"@O@O@O@O@O@O@O@O@@@@@@@@@@@@@@@@@@ @.@@@@@@@@@@  @@@@@@@@@@@@.o @@@@@@@@@@@@@@@@@@@O@O@O@O@O@O@O@O@O@O@O@O@O@O@O@O@O@O@O@O@O@O@O",
"O@O@O@O@O@O@O@O@O@@@@@@@   @@@@@@@ @.@@@@@@@@@    @@@@@@@#@@@. @@@@@@@@@   @@@@@@@O@O@O@O@O@O@O@O@O@O@O@O@O@O@O@O@O@O@O@O@O@O@O@"
};
