/* XPM */
static char *_c797812b8eb4af9ea6024b3cd1ae490fHY0J6QHedsH8mCh[] = {
/* columns rows colors chars-per-pixel */
"128 128 18 1 ",
"  c #050912",
". c #031325",
"X c #00003C",
"o c #072B3A",
"O c #010350",
"+ c #040C5A",
"@ c #21004B",
"# c #320D4E",
"$ c #031B70",
"% c #0B347F",
"& c #540052",
"* c #FC583A",
"= c #F07C36",
"- c #880C4F",
"; c #EC1E44",
": c #DE9A41",
"> c #177DAA",
", c #9B0C8E",
/* pixels */
"XXXXXXXXXXXXXXXXXXXXXXXXXXXXXXXXXXXXXOXXXXXXXXXXXXXXXXXXXXXXXX%>%XXXXXXXXXXXXXXXXXXXXXXXXXXXXXXXXXXXXXXXXXXXXXXXXXXXXXXXXXXXXXXX",
"XXXXXXXXXXXXXXXXXXXXXXXXXXXXXXXXXXXXXXXXXXXXXXXXXXXXXXXXXXXXXXX>XXXXXXXXXXXXXXXXXXXXXXXXXXXXXXXXXXXXXXXXXXXXXXXXXXXXXXXXXXXXXXXX",
"XXXXXXXXXXXXXXXXXXXXXXXXXXXXXXXXXXXXXXXXXXXXXXXXXXXXXXXXXXXXXXX%XXXXXXXXXXXXXXXXXXXXXXXXXXXXXXXXXXXXXXXXXXXXXXXXXXXXXXXXXXXXXXXX",
"XXXXXXXXXXXXXXXXXXXXXXXXXXXXXXXXXXXXXXXXXXXXXXXXXXXXXXXXXXXXXXXXXXXXXXXXXXXXXXXXXXXXXXXXXXXXXXXXXXXXXXXXXXXXXXXXXXXXXXXXXXXXXXXX",
"XXXXXXXXXXXXXXXXXXXXXXXXXXXXXXXXXXXXXXXXXXXXXXXXXXXXXXXXXXXXXXXXXXXXXXXXXXXXXXXXXXXXXXXXXXXXXXXXXXXXXXXXXXXXXXXXXXXXXXXXXXXXXXXX",
"XXXXXXXXXXXXXXXXXXXXXXXXXXXXXXXXXXXXXXXXXXXXXXXXXXXXXXXXXXXXXXXXXXXXXXXXXXXXXXXXXXXXXXXXXXXXXXXXXXXXXXXXXXXXXXXXXXXXXXXXXXXXXXXX",
"XXXXXXXXXXXXXXXXXXXXXXXXXXXXXXX%XXXXXXXXXXXXXXXXXXXXXXXXXXXXXXXXXXXXXXX&XXXXXXXXXXXXXXXXXXXXXXXXXXXXXXXXXXXXXXXXXXXXXXXXXXXXXXXX",
"XXXXXXXXXXXXXXXXXXXXXXXXXXXXXXXXXXXXXXX+XXXXXXXXXXXXXXXXXXXXXXXXXXXXXXXXXXXXXXXXXXXXXXXXXXXXXXXXXXXXXXXXXXXXXXXXXXXXXXXXXXXXXXXX",
"XXXXXXXXXXXXXXXXXXXXXXXXX>XXXXXXXXXXXXXXXXXXXXXXXXXXXXXXXXXXXXXXXXXXXXXXXXXXXXXXXXXXXXXXXXXXXXXXXXXXXXXXXXXXXXXXXXXXXXXXXXXXXXXX",
"XXXXXXXXXXXXXXXXXXXXXXXXXXXXXXXXXXXXXXXXXXXXXXXXXXXXXXXXXXXXXXXXXXXXXXXXXXXXXXXXXXXXXXXXXXXXXXXXXXXXXXXXXXXXXXXXXXXXXXXXXXXXXXXX",
"XXXXXXXXXXXXXXXXXXXXXXXXXXXXXXXXX%XXXXXXXXXXXXXXXXXXXXXXXXXXXXXXXXXXXXXXXXXXXXXXXXXXXXXXXXXXXXXXXXXXXXXXXXXXXXXXXXXXXXXXXXXXXXXX",
"XXXXXXXXXXXXXXXXXXXXXXXXXXXXXXXXXXXXXXXXXXXXXXXXXXXXXXXXXXXXXXXXXXXXXXXXXXXXXXXXXXXXXXXX+XOXXXXXXXXXXXXXXXXXXXXXXXXXXOO+XXXXXXXX",
"XXXXXXXXXXXXXXXXXXXXXXXXXXXXXXXXXXXXXXXXXXXXXXXXXXXXXXXXXXXXXXXXXXXXXXXXXXXXXXXXXXXXXXXX+XOXXXXXXXXXXXXXXXXXXXXXXXXXXXX+XXXXXXXX",
"XXXXXXXXXXXXXXXXXXXXXXXXXXXXXXXXXXXXXXXXXXXXXXXXXXXXXXXXXXXXXXXXXXXXXXXXXXXXXXXXXXXXXXX+XXXXXXXXXXXXXXXXXXXXXXXXXXXXXXXX+XXXXXXX",
"XXXXXXXXXXXXXXXXXXXXXXXXXXXXXXXXXXXXXXXXXXXXXXXXXXXXXXXXXXXXXXXXXXXXXXXXXXXXXXXXXXXXXXXOXXXXXXXXXXXXXXXXXXXXXXXXXXXXXXXX+XXXXXXX",
"XXXXXXXXXXXXXXXXXXXXXXXXXXXXXXXXXXXXXXXXXXXXXXXXXXXXXXXXXXXXXXXXXXXXXXXXXXXXXXXXXXXXXXXOXXXXXXXXXXXXXXXXXXXXXXXXXXXXXXXXOXXXXXXX",
"XXXXXXXXXXXXXXXXXXXXXXXXXXXXXXXXXXX         XXXXXXXXXXXXXXXXXXXXXXXXXXXXXXXXXXXXXXXXXXXOXXXXXXXXXXXXXXXXXXXXXXXXXXXXXXXXOXXXXXXX",
"XXXXXXXXXXXXXXXXXXXXXXXXXXXXXXXXXXX         XXXXXXXXXXXXXXXXXXXXXXXXXXXXXXXXXXXXXXXXXXX+XXXXXXXXXXXXXXXXXXXXXXXXXXXXXXXX+XXXXXXX",
"XXXXXXXXXXXXXXXXXXXXXXXXXXXXXXXXXXX         XXXXXXXXXXXXXXXXXXXXXXXXXXXXXXXXXXXXXXXXXXX+XXXXXXXXXXXXXXXXXXXXXXXXXXXXXXXX+XXXXXXX",
"XXXXXXXXXXXXXXXXXXXXXXXXXXXXXXXXXXX         XXXXXXXXXXXXXXXXXXXXXXXXXXXXXXXXXXXXXXXXXXX+XXXOXXXXXXXXXXXXXXXXXXXXXXXXXOXO+XXXXXXX",
"XXXXXXXXXXXXXXXXXXXXXXXXXXXXXXXXXXX         XXXXXXXXXXXXXXXXXXXXXXXXXXXXXXXXXXXXXXXXXXX%+OXOOXXXXXXXXXXXXXXXXXXOXXXXXOX++XXXXXXX",
"XXXXXXXXXXXXXXXXXXXXXXXXXXXXXXXXXXX         XXXXXXXXXXXXXXXXXXXXXXXXXXXXXXXXXXXXXXXXXXXX+OXXOXXXXXXXXXXOOXXXXXOOXOXXOOX%XXXXXXXX",
"XXXXXXXXXXXXXXXXXXXXXXXXXXXXXXXXXXX         XXXXXXXXXXXXXXXXXXXXXXXXXXXXXXXXXXXXXXXXXXXX%OO+OOXOOOOXXOOOXXXOO++XOOOXOOO+XXXXXXXX",
"XXXXXXXXXXXXXXXXXXXXXXXXXXXXXXXXXXX         XXXXXXXXXXXXXXXXXXXXXXXXXXXXXXXXXXXXXXXXXXXX%+OO++OXOOOOOOXXXXO++OXXOOO++++%XXXXXXXX",
"XXXXXXXXXXXXXXXXXXXX%%XXXXXXXXXXXXX         XXXXXXXXXXXXXXXXXXXXXXXXXXXXXXXXXXXXXXXXXXXXX%+OX++OXXXXOOOOO+++OXXOO+++++%XXXXXXXXX",
"XXXXXXXXXXXXXXXXXXXXX XXXXXXXXXXXXX         XXXXXXXXXXXXXXXXXXXXXXXXXXXXXXXXXXXXXXXXXXXXX%++OO+OOOOXOOOOOXXXXXOO+++%+%%XXXXXXXXX",
"XXXXXXXXXXXXXXXXXXXXX XXXXXXXXXXXXX         XXXXXXXXXXXXXXXXXXXXXXXXXXXXXXXXXXXXXXXXXXXXXX%+OOOX++O+++XXXXXXOOO+O+%+%%XXXXXXXXXX",
"XXXXXXXXXXXXXXXXXXXXX XXXXXXXXXXXXXXX  XXX  XXXXXXXXXXXXXXXXXXXXXXXXXXXXXXXXXXXXXXXXXXXXXXX%+%++++++++OXOOOOOO+++%+%%XXXXXXXXXXX",
"XXXXXXXXXXXXXXXXXXXXX XXXXXXXXXXXXXXX  XXX  XXXXXXXXXXXXXXXXXXXXXXXXXXXXXXXXXXXXXXXXXXXXXXX%%+%++O++++O++++++++%%+%%%XXXXXXXXXXX",
"XXXXXXXXXXXXXXXXXXXXX      XXXXXXXXXX   XX  XXX%%XXXXXXXXXXXXXXXXXXXXXXXXXXXXXXXXXXXXXXXXXXX%%+%%+OOOO++++++%%%%%>%%XXXXXXXXXXXX",
"XXXXXXXXXXXXXXXXXXXXX XXXX  XXXXXXXXX    X  XXXX XXXXXXXXXXXXXXXXXXXXXXXXXXXXXXXXXXXXXXXXXXXXX%>>+%%+O%%%%+%%%%>>%XXXXXXXXXXXXXX",
"XXXXXXXXXXXXXXXXXXXXX XXXXX XXXXXXXXX  XXX  XXXX XXXXXXXXXXXXXXXXXXXXXXXXXXXXXXXXXXXXXXXXXXXXXX%%>>>+%%>>>%%>>>%%XXXXXXXXXXXXXXX",
"XXXXXXXXXXXXXXXXXXXXX XX.oX Xo..XXo.X  o..  XXXX XXXXXXXXXXXXXXXXXXXXXXXXXXXXXXXXXXXXXXXXXXXXXXXX%%%%>>>>>>>>%%XXXXXXXXXXXXXXXXX",
"XXXXXXXXXXXXXXXXXXX     .o   .    .    o        oooooXXXXXXXXXXXXXXXXXXXXXXXXXXXXXXXXXXXXXXXXXXXXXXX%%%%%%%%XXXXXXXXXXXXXXXXXXXX",
"XXXXXXXXXXXXXXXXXXX     .o   .    .    o        .....XXXXXXXXXXXXXXXXXXXXXXXXXXXXXXXXXXXXXXXXXXXXXXXXXXXXXXXXXXXXXXXXXXXXXXXXXXX",
"XXXXXXXXXXXXXXXXXXX     .o   .    .    o        .....XXXXXXXXXXXXXXXXXXXXXXXXXXXXXXXXXXXXXXXXXXXXXXXXXXXXXXXXXXXXXXXXXXXXXXXXXXX",
"XXXXXXXXXXXXXXXXXXX     .o   .    .    o        .....XXXXXXXXXXXXXXXXXXXXXXXXXXXXXXXXXXXXXXXXXXXXXXXXXXXXXXXXXXXXXXXXXXXXXXXXXXX",
"XXXXXXXXXXXXXXXXXXX     .o   .    .    o        .....XXXXXXXXXXXXXXXXXXXXXXXXXXXXXXXXXXXXXXXXXXXXXXXXXXXXXXXXXXXXXXXXXXXXXXXXXXX",
"XXXXXXXXXXXXXXXXXXX     .o   .    .    o        .....XXXXXXXXXXXXXXXXXXXXXXXXXXXXXXXXXXXXXXXXXXXXXXXXXXXXXXXXXXXXXXXXXXXXXXXXXXX",
"XXXXXXXXXXXXXXXXXXX                    .        .....XXXXXXXXXXXXXXXXXXXXXXXXXXXXXXXXXXXXXXXXXXXXXXXXXXXXXXXXXXXXXXXXXXXXXXXXXXX",
"XXXXXXXXXXXXXXXXXXX                                  XXXXXXXXXXXXXXOOOXXXXXXXXXXXXXXXXXXXXXXXXXXXXXXXXXXXXXXXXXXXXXXXXXXXXXXXXXX",
"XXXXXXXXXXXX                                  .o ........................OOOXXXXXXXXXXXXXXXXXXXXXXXXXXXXXXXXXXXXXXXXXXXXXXXXXXXX",
"XXXXXXXXXXXX    .  ..   %%>>>>%%   %%%>%%%%%  .o ........................OOOOOOOXXXXXXXXXXXXXXXXXXXXXXXXXXXXXXXXXXXXXXXXXXXXXXXX",
"XOOOOOXOOOOO    .. ..                         .o ........................@@@@@OOOOOXXXXXXXXXXXXXXXXXXXXXXXXXXXXXXXXXXXXXXXXXXXXX",
"XXOOOOOOOXXX    ..  .                         .o ...        ..,,,,,,,,,..@@@@OOOOOOXXXXXXXXXXXXXXXXXXXXXXXXXXXXXXXXXXXXXXXXXXXXX",
"XXXXXXO>>>>>>>>>.  ..                         .o ...       o..,,,,,,,,,..XXXXXXXXXXXXXXXXXXXXXXXXXXXXXXXXXXXXXXXXXXXXXXXXXXXXXXX",
"XXXXXXX>%%%%%%%>                              .o           o..,,,,,,,,,  XXXXXXXXXXXXXXXXXXXXXXXXXXXXXXXXXXXXXXXXXXXXXXXXXXXXXXX",
"XXXXXXX>%%%%%%%>............................. .o ooo       o..,,,,,,,,,ooXXXXXXXXXXXXXXXOOOOOOOOXXXXXOOOOOXXXXXXOOOOOXXXXXXXXXXX",
"XOOOXXX>%%>%>%%>.   .                         .o ...       o..,,,,,,,,,..XXXXXXXXXXXXXXXXXO@@@@OOOXXXXXOOOOOOOXXXOOOOOOXXXXXXXXX",
"XOOOOOO>%>>>>%%>.   .     o  .  .             .o           o..###,,,,,,  XXXXXXXXXXXXXXXXXXXXXXXXXXXXXXXXXXXXXXXXXXXXXXXXXXXXXXX",
"OOOOOOO>%%>%>%%>          o  .  .             .o ooo       o..###,,,,,,ooXXXXXXXXXXXXXXXXXOOXXXXXXXXXXXXXXXXXXXXXXXXOOOXXXXXXXXX",
"OOOOOOO>%%>>>%%>.....oo.. o  .  .  ....oooo   .o ...       o..########,..OOOOOOXXXXOOOXXXOOOXXXXXXXXXXXXXXXXXXXOOOOOOOOOXXXXXXXX",
"OXXOOOO>%%>%>%%>.... .ooo o  .  .  ... oooo   .o ........................OOOOOOOOOOOOOOOOOOOXXXXXXXXXXXXXXXXXXXXXXXXXOOXXXXXXXXX",
"XXXXX@@>%%%%%%%>  ..  . o o  .  .   ..  o o   .o ...,,,,,,,,..        o..@@@@@OOOOOOXOOOOOXXXXXXXXXXXXXXXXXXXOOXXXXXXXXXXXXXXXXX",
"XXXXXXO>%%%%%%%>.ooo .o.o o......  ... oooo   .o ...,,,,,,,,..        o..@@@@@@@@XXXXXXXXXXXXXXXXXXXXXXXXOOOOOOOOOOOOOOOOXXXXXXX",
"XXXXXXX>%%%%%%%>                              .o ...,,,,,,,,..           XXXXXXXXXXXXXXXXXXXXXXXXXXXXXXXXXOOOOOOOOOOOOXXXXXXXXXX",
"XXXXXXX>%%%>>>%>........................oooooo.o ...,,,,,,,,..        o..XXXXXXXXXXXXXXXXXXXXXXXXXXXXXXXOOOOOOOOOOOOOOOOXXXXXXXX",
"XXXXXXX>%%%%>%%>.............................o.o ...,,,,,,,,..        o..XXOOOOOXXXXXXXXXXXOOOOOXXXXXXXXXXOOOOOXXXXXXXOOXXXXXXXX",
"XXXXXXX>%%>>>%%>                             o.o ...,,,,,,,,..          #XXXXXXXXXXXXXXXOOOOOOOOOOOXXXXXXXXXXXXXXXXXXXXXXXXXXXXX",
"XXXXXXX>%%%%>%%>                              .o ...##,,,##,..        o.#......OOOOOOXXXXOOOOOOOXXXXXXXXXXXXXXXXOXXXXXXXXXXXXXXX",
"XXXXXXX>%%>>>%%>    .                         .o ....######,..ooooooooo.#.,,,,,.OOOOOOOOXXXOOOXXXXXXXXXXXXOOOOOOOOXXXXXXXXXXXXXX",
"XXXXXXX>%%%%%%%>.  ..                         .o .......................#.,,,,,.OOOOOOOOOOOOOOXXXXXXXXXXXXXXXXXXOOOOXXXXXXXXXXXX",
"XXXXXXX>%%%%%%%>.  ..   %%>>>>%%   %%%%>>%%%  .o .......................#.,>>,,.XXXOOOOOXXXXXXXXXXXXXXXXXXXXXXXXXXOOOXXXXXXOXXXX",
"XXXXXXX>%%>%%>%>..  .                         .o . .       o..        o.#.,,>,,.XXXXXXXXXX>XXXXXXXXOOOOOOXXXXXXXOOOOOOOXXXOOOXXX",
"XXOOOOO>%%>%%>%>.. ..                         .o . .       o..        o.#.,>>,,.XXXXXOOOXX XXXXXXOOOOOOOOOOOXXXOOOOOXOOOOOOOOXXX",
"XXXXXOO>%%>>%>%>.  ..                         .o . .       o..          #.,,,,,.XOOOOOOOOO OOOOXOOOOOOOOOOO@OOOOOOOXXXOOOOOOOOOO",
"XXXXXXX>%%>>>>%>............................. .                                       .           OOOO@@OO@@OOOOOXXXXXXXXXXXXXXX",
"XXXXXXX>%%%%%%%>.   .                         .o ...       o .        o. .,,>,,.XXX XX.O   @@ @ O @@@@@@@@OOOO@@@XXXXXXXXXXXXXXX",
"XXXXXXX>%%%%%%%>.   .     o......             .                                       .           &&&&&@&&@@@@@@XXXXXXXXXXXXXXXX",
"XXXXXXX>%%%>>%%>.   .     o  .  .             .             ..        oo ., ,,, O XXOO.O  O O  X @@@@XXXXXX@XXXXXXXXXXXXXXXXXXXX",
"XXXXXXX>%%%%%%%>.....oooo o  .  .  ....oooo   .   ..oooo oo .. oooooo o. ., >,, O OOOO O  @ O  X XXXXXXXXXXXXXXXXXXXXXXXXXXXXXXX",
"XXXXXX@>>>>>>>>>  ..  . o .......   ..  o o   .   ...... .. .. ...... .. ., >,, @ @@@@ @  @ @  @ XOOOXXXXXXXXXXXXXXXXXXXXXXXXXXX",
"XXXXX@O         .... .o.o o  .  .  ... .o.o   .                                        ...... .......OOOOOOXXXXXXXXXXXXXXXXXXXXX",
"OOOOOOOOOO@O    .ooo oooo o......  ... oooo   .                   .       .            ...... .......@@OOOOOXXXXXXXXOOOOO@@XXX@@",
"@@@@@@@@OOOO                                  .....................       .            ...... .....>>>O@@@XXXXXXXOOOOOO@@@@@@@@@",
"@@@@@@@@@@@O                                  .                   .       .          >>>..... .....>>>OOOOOOOXXXX@@@@@@@@@OO@@@@",
"X@@@@@@@@@@.................................  . >>> >> >>         .       .          >%>..... .....>%>O@@@X@@@@@@@@@OOOOOOOOOO@X",
"XXXXXXXXX@                                    . > > >> >          .........          >%>..... .....>%>XOX@@@@@@@@@@@@@@@@@@@@@XX",
"XXXXXXXXXX .. ..............................  . > > >> >>         .                  %%>...   .....>%>XXXXXX@@@&&&&&&&&&&&&&&XXX",
"XXXXX@@@XXXX..  ..........................>>  . >>> >> >>         .                  >%>      .....%%>XXXXXXXXXX@@@&----&&&XXXXX",
"XXX&&@@@@@@X        .                     >%  . >>> >> >          .                  >>>. ... .....>%>XXXXXXXXXXXXX@@@XXXXXXXXXX",
"XXXXX&&&&&@&    .  ..                     >>  .                  ,,,,,  ,,,,,          .. ... .....>%>@@XXXXXOOOOOOOO@XXXXXXXXXX",
"@@@XXXX&---&    .  ..   %%>>>>%%   %%%%>>%>%  .                  ,.  ,  ,   ,          .. ... oooo.>>>@@XXX@@@XXXXXOO&@@@@@&&&@@",
"@@@XXXX@@@@-    ..  .                     >>  .........     #####,.  ,,,,   ,,,,###    ..o... .....>>>X@@&&@@@@@@@@@@&&&&&&&&@@@",
"&@&&&&@@@@@@    .. ..                                 .           .                    ..o... .....>>>@@&&&&&&&@@@@@@@@@&&&&@@@&",
"@@&&&@&&&&&@    .  ..                                             .                    ...... .......@@@@@--@@&&&&----------&&&&",
"@@@@&&&&&&&&                           @@@@@@@@@@@@@@@@@@@@@@@@@@@@@@@@@@@@@@@@@@@@@@@@@@##############&@@@@&&&&&&&&&&&&@@@@@@@@",
"@&@&@&&&&&--    .   .                  @@@@@@@@@@@@@@@@@@@@@@@@@@@@@@@@@@@@@@@@@@@@@@@@@@##############--&&&&&&&&&&&&&&&@&&&&&@&",
"&@&&&&&-----    .   .     o......      @@@@@@@@@@@@@@@@@@@@@@@@@@@@@@@@@@@@@@@@@@@@@@@@@@##############------------&&&&&&&&&&&&@",
"&&&&&&&&&---    .   .     o  .  .      ##################################################@@@@@@@@@@@@@@&&&-;;;--&&&&&&&&&&&&&&&&",
"&&&&&&&&&&&&    .....oooo o  .  .  ....oooo       .    .        , ,           .                      &&&&&&&&&&&&&&-------&&&&&&",
"&-&&&&&&&&&&      ..  . o .......   ..  o o       .    .                      .        ..............-&&&&&&&&&&&-;;;;;---------",
"-&-&-&&&&&;-    .... .o.o o  .  .  ... .o.o       .    .                      .        ..............--&&&&---;;;;;;;;;;--------",
"-------;--;;      ..  . o o  .  .   ..  o o    $$$$$$$$$$   >>>>>>>>>>   %%%%%%%%%%    ..............-;;;;;---------------------",
"-----;;;;;;;                                   $$$$$$$$$$   >>>>>>>>>>   %%%%%%%%%%    ..%%%%.%%%.%%.;;;;;;;---------;;;;;;;;;--",
"-----;;*;;;;                                ...%%%%%%%%%%   %%%%%%%%%%   >>>>>>>>>>    ..>>>>.$$$.>>.********-----;;*****;;;;;;-",
"-;-;-;;;***............................ooooo   $$$$$$$$$$   >>>>>>>>>>   %%%%%%%%%%    ..%%%%.%%%.%%.*====**--------------------",
";;;;;;;;;;                                     $$$$$$$$$$   >>>>>>>>>>   %%%%%%%%%%    ..%%%%.%%%.%%.;;;;;;;;---;;;;;;----------",
";;;@@@@@@@@@@@@@@@@@@@@@@@@@@@@@@@@@@@@@@@@#                    .             .        ... ... ... ..;;;;;;;;;;;;;;;;;;;;;;;;;;;",
";;;@@@@@@@@@@@@@@@@@@@@@@@@@@@@@@@@@@@@@@@@#                    .             .        ... ... ... ..;;*;**;;;;***;*;-----;;;;;;",
";;;@@@@@@@@@@@@@@@@@@@@@@@@@@@@@@@@@@@@@@@@,                    .             .            ... ...   ;****;*;;*;*;*;*&&&--;;;;;;",
";*;     .                        .     @@@@@@@@@@@@@@@@@@@@@@@@@@@@@@@@@@@@@@@@@@@@@@@@@@##############**************-----;*;*;*",
"***     .                        .     @@@@@@@@@@@@@@@@@@@@@@@@@@@@@@@@@@@@@@@@@@@@@@@@@@##############=*=*****=*=*=*&&&--*=****",
"**=     .       @@               .     @@@@@@@@@@@@@@@@@@@@@@@@@@@@@@@@@@@@@@@@@@@@@@@@@@##############-----=&----=*=-----=*=*=*",
"===     .   @@@@@@    @@@@       .     ##################################################@@@@@@@@@@@@@@&&&--:&&&&-===&&&--====:=",
":=:     .   @@@@@     @@@@       .     @@@@@@@@@@@@@@@@@@@@@@@@@@@@@@@@@@@@@@@@@@@@@@@@@@##############-----:&----:=:&&&--:=:=&-",
"=:=     .   @@@       @@##       .         .                                .                        :&&&&--:&&&&-=:=&&&--::=:&-",
":::     #   @@@ ,,###, @##       #         .##,,,,,,,,,,,,,,,               .          ..............:&-----:&----:::&&&-&-:::&-",
"::&     #   @@  %>>>%, @@#       #         .##,##,#,#,#,,,,#, %%%%%%%%   %%%%%%%%%%    ..............:&&&&--:&&&&-:&&&&&-&&-::&-",
"::&     #   @@  %%%>%# @@#       .         .##,##,#,#,#,,,,#, $$$$$$$$   >>>>>>>>>>    ..>>>>.%%%.>>.:&------&&&&-:&&&&&-&&-::&-",
"::&     .   @@  %>>>%# @@#       .           #,##,#,#,#,,#,#, %%%%%%%%   %%%%%%%%%%    ..%%%%.>>>.%%.:&&&&---&&&&-:&&&&&-&&-::&-",
"::&     .       %%%>%,           .           #,##,#,#,#,,,,#, %%%%%%%%   %%%%%%%%%%    ..%%%%.>>>.%%.:&&&&---&&&&-&&&&&&-&&&::&&",
"&&&  .....####  %%>>%,....  ###........      #,##,#,#,#,,,,#, $$$$$$$$   >>>>>>>>>>    ..>>>>.%%%.>>.&&&&&&&-&@@@&@&@@@@&@@&&&&&",
"@@@  ..         %%%%%, @    #.             .##,##,###,#,,#,## %%%%%%%%   %%%%%%%%%%    ..%%%%.>>>.%%.&&&&&&&-@@@@&@&@@@@-@@&@@@&",
"@@@  ..     @@@ %>>>%, @@   #.             .##,,,,,,,,,,,,,,,                    .     ....... ......@@@@@@@&@@@@&@@@@@@&@@@@@@&",
"@@@.............%>>%%,......................##,,,,,,,,,,,,,,,                    .     ....... ......@@@@@@@@@@@@@@@@@@@&@@@@@@@",
"@@@.............%>>%>,......................##,,#,,#,##,,,#,,                    .     ....... ......@@@@@@@&@@@@&@@@@@@@@@@@@@&",
"@@@             %>>%>,                 @@@@@##,,#,,#,##,#,#,, > > @@@@@@@@@@@@@@######@@@##############@@@@@@@@@@@@@@@@@@@@@@@@@",
"@O@O@O@O@O@O    %%%%>,                 @@@@@##,,#,,#,###,#,,,     @@@@@@@@@@@@@@#@@@@#@@@##############O@O@O@O@O@O@O@O@O@O@O@O@O",
"O@O@O@O@O@O@    %>%>>,                 @@@@@##,,,,,,,,,,,##,, @@@@@@@@@@@@@@@@@@#@@@@#@@@##############@O@O@O@O@O@O@O@O@O@O@O@O@",
"OOOO@OOOOOOO    %>>>>,  >>>>>>>>>>>>>>>#######,,,,,,,,,,,,,,, ###########################@@@@@@@@@@@@@@OOOOO@OOOOOOO@OOOOOOO@OOO",
"O+O+O+O+O+O+    %%%%%#  %%,%%,,,%%%,,,,%%%%%##,>>>>>>>>>>>>>,                                        +O+O+O+O+O+O+O+O+O+O+O+O+O+",
"+O+O+O+O+O+O    %%%%%#  >>,>>,#,>>,###,>>>   #,>%>>>%>>>>>>>,                          ..............O+O+O+O+O+O+O+O+O+O+O+O+O+O",
"++O+++O+++O+    ,,,,,#  %%,%%%#,%%,,#,,%%%   #,>%%>>%%%%>%>>,                          ..............+O+++O+++O+++O+++O+++O+++O+",
"++++++++++++    .....   %%,%%%#,%%%,#,%%%%   #,>%%%>%>%%>%%>, >>>>>>>>   %%%%%%%%%%    ..............+++++++++++++++++++++++++++",
"$+$+$+$+$+$+    .   .   >>,>>>#,>##,####>>>>##,>>>>>>>>>>>>>, >>>>>>>>   %%%%%%%%%%    ..$$$$.>>>.%%.+$+$+$+$+$+$+$+$+$+$+$+$+$+",
"+$+$+$+$+$+$    .   .   %,,,%%#,%%%,#,%%%%%%##,,,,,,,,,,,,,,, %%%%%%%%   >>>>>>>>>>    ..%%%%.%%%.>>.$+$+$+$+$+$+$+$+$+$+$+$+$+$",
"$+$+$+$+$+$+    .   .   %%#,%%##,%%,#,%%%%%%                  >>>>>>>>   %%%%%%%%%%    ..$$$$.>>>.%%.+$+$+$+$+$+$+$+$+$+$+$+$+$+"
};
