/* XPM */
static char *c64b02122889443ef7e75ab8e9f053e3atpgo9Nr9bm6vilR[] = {
/* columns rows colors chars-per-pixel */
"128 128 17 1 ",
"  c #050912",
". c #031325",
"X c #00003C",
"o c #072B3A",
"O c #010350",
"+ c #040C5A",
"@ c #21004B",
"# c #320D4E",
"$ c #0B347F",
"% c #540052",
"& c #FC583A",
"* c #F07C36",
"= c #880C4F",
"- c #EC1E44",
"; c #DE9A41",
": c #177DAA",
"> c #9B0C8E",
/* pixels */
"XXXXXXXXXXXXXXXXXXXXXXXXXXXX+OXXXXXXXXXXXXXXXXXX$XXXXXXXXXXXXXXXXXX+XOXXXXXXXXXXXXXXXXXXXXXXXXXXOO+XXXXXXXXXXXXXXXXXXXXXXXOXXXXX",
"XXXXXXXXXXXXXXXXXX$XXXXXXXX+$+XXXXXXXXXXXXXXXXXXXXXXXXXXXXXXXXXXXXX+XOXXXXXXXXXXXXXXXXXXXXXXXXXXXX+XXXXXXXXXXXXXXXXXXXXXXXXXXXXX",
"XXXXXXXXXXXXXXXXXXXXXXXXXX+$:$+XXXXXXXXXXX:XXXXXXXXXXXXXXXXXXXXXXX+XXXXXXXXXXXXXXXXXXXXXXXXXXXXXXXX+XXXXXXXXXXXXXXXXXXXXXXXXXXXX",
"XXXXXXXXXXXX:XXXXXXXXXXXXXX+$+XXXXXXXXXXXXXXXXXXXXXXXXXXXXXXXXXXXXOXXXXXXXXXXXXXXXXXXXXXXXXXXXXXXXX+XXXXXXXXXXOXXXXXXXXXXXXXXXXX",
"XXXXXXXXXXXXXXXXXXXXXXXXXXXX+XXXXXXXXXXXXXXXXXXXXX$XXXXXXXXXXXXXXXOXXXXXXXXXXXXXXXXXXXXXXXXXXXXXXXXOXXXXXXXXXXXXXXXXXXXXXXXXXXXX",
"XXXXXXXXXXXXXXXXXXXX$XXXXXXXXXXXXXXXXXXXXXXXX$XXXXXXXXXXXXXXXXXXXXOXXXXXXXXXXXXXXXXXXXXXXXXXXXXXXXXOXXXXXXXXXXXXXXXXXXXXXXXXXXXX",
"XXXXXXXXXXXXXXXXXXXXXXXXXXXXXXXXXXXXXXXXXXXXX:XXXXXXXXXXXXXXXXXXXX+XXXXXXXXXXXXXXXXXXXXXXXXXXXXXXXX+XXXXXXXXXXXXXXXXXXXXXXXXXXXX",
"XXXXXXXXXXXXXXXXXXXXXXXXXXXXXXXXXXXXXXXXXXXX$:$XXXXXXXXXXXXXXXXXXX+XXXXXXXXXXXXXXXXXXXXXXXXXXX@XXXX+XXXXXXXXXXXXXXXXXXXXXXXXXXXX",
"XXXXXXXXXXXXXXXXXXXXXXXXXXXXXXXXXXXXXXXXXX$::;::$XXXXXXXXXXXXXXXXX+XXXOXXXXXXXXXXXXXXXXXXXXXXX%XOXO+XXXXXXXXXXXXXXXOXXXXXXXXXXXX",
"XXXXXXXXXXXXXXXXXXXXXXXXXXXXXXXXXXXXXXXXXXXX$:$XXXXXXXXXXXXXXXXXXX$+OXOOXXXXXXXXXXXXXXXXXXOXX@>@OX++XXXXXXXXXXXXXXXXXXXXXXXXXXXX",
"XXXXXXXXXXXXXXXXXXXXXXXXXXXXXXXXXXXXXXXXXXXXX:XXXXXXXXXXXXXXXXXXXXX+OXXOXXXXXXXXXXOOXXXXXOO%%>&>%%$XXXXXXXXXXXXXXXXXXXXXXXXXXXXX",
"XXXXXXXXXXXXXXXXXXXXXXXXXXXXXXXXXXXXXXXXXXXXO$XXXXXXXXXXXXXXXXX         OXOOOOXXOOOXXXOO++XOO@>@OO+XXXXXXXXXXXXXXXXXXXXXXXXXXXXX",
"XXXXXXXXXXXXXXXXXXX%XXXXXXXXXXXXXXXXXXXXXXXXXXXXXXXXXXXXXXXXXXX ..ooo.. +OXOOOOOOXXXXO++OXXOOO% ++$XXXXXXXXXXXXXXXXXXXXXXXXXXXXX",
"XXXXXXXXXXXXXXXXXXXXXXXXXXXXXXXXXXXXXXXXXXXXXXXXXXXXXXXXXXXXXXX  .....  ++OXXXXOOOOO+++OXXOO++@ +$XXXXXXXXXXXXX+XXXXXXXXXXXXXXXX",
"XXXXXXXXXXXXXXXXXXXXXXXXXXXXXXXXOXXXXXXXXXXXXXXXXXXXXXXXXXXXXXX         O+OOOOXOOOOOXXXXXOO+++  $$XXXXXXXXXXXX+$+XXXXXXXXXXXXXXX",
"XXXXXXXXXXXXXXXXXXXXXXXXXXXXXXXXXXXXXXXXXXXXXXXXXXXXXXXXXXXXXXX  ..o..  OOX++O+++XXXXXXOOO+O+$  $XXXXXXXXXXXX+$:$+XXXXXXXXXXXXXX",
"XXXXXXXXXXXXXXXXXXXXXXXXXXXXXXXXXXXXXXXXXXXXXXXXXXXXXXXXXXXXXXX         $++++++++OXOOOOOO+++$    XXXXXXXXXXXXX+$+XXXXXXXXXXXXXXX",
"XXXXXXXXXXXXXXXXXXXXXXXXXXXXXXXXXXXXXXXXXXXXXXXXXXXXXXXXXXXXXXX  .....  +$++O++++O++++++++$$+    XXXXXXXXXXXXXX+XXXXXXXXXXXXXXXX",
"XXXXXXXXXXXXXXXXXXXXXXXXXXXXXXXXXXXXXXXXXXXXXXXXXXXXXXXXXXXXXXX         $+$$+OOOO++++++$$$$$:$  XXXXXXXXXXXXXXXXXXXXXXXXXXXXXXXX",
"XXXXXXXXXXXXXXXXXXXXXXXXXXXXXXXXXXXXXOXXXXXXXXXXXXXXXXXXXXXXXXX         X$::+$$+O$$$$+$$$$::$X  XXXXXXXXXXXXXXXXXXXXXXXXXXXXXXXX",
"XXXXXXXXXXXXXXXXXXXXXXXXXXXXXXXXXXXXXXXXXXXXXXXXXXXXXXXXXXXXXXX  .....  XX$  ::+$  ::$$:::$$XX  XXXXXXXXXXXXXXXXXXXXXXXXXXXXXXXX",
"XXXXXXXXXXXXXXXXXXXXXXXXXXXXXXXXXXXXXXXXXXXXXXXXX;XXXXXXXXXXXXX                         $$XXXX  XXXXXXXXXXXXXXXXXXXXXXXXXXXXXXXX",
"XXXXXXXXXXXXXXXXXXXXXXXXXXXXXXXXXXXXXXXXXXXXXXXXXXXXXXXXXXXXXXX                         XXXXXX  XXXXXXXXXXXXXXXXXXXXXXXXXXOXXXXX",
"XXXXXXXXXXXXXXXXXXXXXXXXXXXXXXXXXXXXXXXXXXXXXXXXXXXXXXXXXXXXXXX         XXX  XXXX  XXX  XXXXXX  XXXXXXXXXXXXXXXXXXXXXXXXXXXXXXXX",
"XXXXXXXXXXXXXXXXXXXXXXXXXXXXXXXXXXXXXXXXXXXXXXXXXXXXXXXXXXXXXXX         XXXXXXXXXXXXXX  XXXXXX  XXXXXXXXXXXXXXXXXXXXXXXXXXXXXXXX",
"XXXXXXXXXXXXXXXXXXXXXXXXXXXXXXXXXXXXXXXXXXXXXXXXXXXXXXXXXXXXXXX X XXX X XXXXXXXXXXXXXX  XXXXXX  XXXXXXXXXXXXXXOXXXXXXXXXXXXXXXXX",
"XXXXXXXXXXXXXXXXXXXXXX$XXXXXXXXXXXXXXXXXXXXXXXXXXXXXXXXXXXXXXXX X XXX X XXXXXXXXXXXXXX  XXXXXX  XXXXXXXXXXXXXXXXXXXXXXXXXXXXXXXX",
"XXXXXXXXXXXXXXXXXXXXXXXXXXXXXXXXXXXXXXXXXXXXXXXXXXXX ooooooooooooooooooooooooooooooooooooooooooooooooooooooo XXXXXXXXXXXXXXXXXXX",
"XXXXXXXXXXXXXXXX:XXXXXXXXXXXXXXXXXXXXXXXXXXXXXXXXXXX oooo.o.o....................................o.o.ooo.ooo .XXXXXXXXXXXXX XXXX",
"XXXXXXXXXXXXXXXXXXXXXXXXXXXXXXXXXXXXXXXXXXXXXXXXXXXX o....................................................oo ..XXXXXXXXXXXX XXXX",
"XXXXXXXXXXXXXXXXXXXXXXXX$XXXXXXXXXXXXXXXXXXXXXXXXXXX o... . . .  . .  .   ........              .  .  ....oo .  XXXOXXXXXXX XXXX",
"XXXXXXXXXXXXXXXXXXXXXXXXXXXXXXXXXXXXXXXXXXXXXXXXXXXX o.. ... .                                         ....o .  .oXXXXXXXXX XXXX",
"XXXXXXXXXXXXXXXXXXXXXXXXXXXXXXXXXXXXXXXXXXXXXXXXXXXX ...                                                 .oo .  .oXXXXXXXXX XXXX",
"XXXXXXXXXXXXXXXXXXXXXXXXXXXXXXXXXXXXXXXXXXXXXXXXXXOX o.   ooooooo .       ooooooo .        ooooooo .     ..o .  .o.XXXXXXXX XXXX",
"XXXXXXXXXXXXXXXXXXXXXXXXXXXXXXXXXXXXXXXXXXXXXXXXXXXX ..   ....... .       ....... .        ....... .    .... .  .o..XXXXXXX XXXX",
"XXXXXXXXXXXXXXXXXXXXXXXXXXXXXXXXXXXXXXXXXXXXXXXXXXXX o    ....... .       ....... .        ....... .     ..o .  .o..XXXXXXX XXXX",
"XXXXXXXXXXXOXXXXXXXXXXXXXXXXXXXXXXXXXXOXXXXXXXXXXXXX o.   ....... .       ....... .        ....... .     ..o .  .o..XXXXXXX XXXX",
"XXXXXXXXXXXXXXXXXXXXXXXXXXXXXXXXXXXXXXXXXXXXXXXXXXXX o.   ....... .       ....... .        ....... .     ..o .  .o..XXXXXXX XXXX",
"XXXXXXXXXXXXXXXXXXXXXXXXXXXXXXXXXXXXXXXXXXXXXXXXXXXX ..   ....... .       ....... .        ....... .     ..o .  .o..XXXXXXX XXXX",
"XXXXXXXXXXXXXXXXXXXXXXXXXXXXXXXXXXXXXXXXXXXXXXXXXXXX ...                                                ...o .  .o..XXXXXXX XXXO",
"XXXXXXXXXXXXXXXXXXXXXXXXXXXXXXXXXXXXXXXXXXXXXXXXXXXX o.....                                            ....o .  .o..XXXXXXX XXXX",
"XXXXXXXXXXXXXXXXXXXXXXXXXXXXXXXXXXXXXXXXXXXXXXXXXXXX o..... . .. . ...  .... .  . ..  .. . .        ........ .  .o..XXXXXXX XXXX",
"XXXXXXXXXXXXXXXXXXXXXXXXXXXXXXXXXXXXXXXXXXXXXXXXXX.. ......................................................o .  .o..XXXXXXX XXXX",
"XXXXXXXXXXXXXXXXXXXXXXXXXXXXXXXXXXXXXXXXXXXXXXXXXX.. .##%#%##%%%%%%%%%%%%%%%%%%%%%%%%%%%%%%%%#%%%%#%#%#%##.o .  .o..XXXXXXX XXXX",
"XXXXXXXXXXXXXXXXXXXXXXXXXXXXXXXXXXXXXXXXXXXXXXXXXXXX .              ..                ..                  o. .  .o..XXXXXXX XXXX",
"XXXXXXXXXXXXXXXXXXXXXXXXXXXXXXXXXXXXXXXXXXXXXXXXXXXX .              ..                ..                     o  .o..XXXXXXX XXXX",
"XXXXXXXXXXXXXXXXXXXXXXXXXXXXXXXXXXXXXXXXXXXXXXXXXXXX .               .                 .                  .o                XXXX",
"XXXXXXXXXXXXXXXXXXXXXXXXXXXXXXXXXXXXXXXXXXXXXXXXXXXX .              .                 ..                  .o   ::::::::$$:: XXXX",
"XXXXXXXXXXXXXXXXXXXXXXXXXXXXXXXXXXXXXXXXXXXXXXXXXXXX .>>>>>>>>>>>>> .. >>>>>>>>>>>>>  .. >>>>>>>>>>>>>    .o . :          : XXXX",
"XXXXXXXXXXXXXXXXXXXXXXXXXXXXXXXOOOOOOOOOOOOOXXXXXXXX .>>>>>>>>>>>>> .. >>>>>>>>>>>>>   . >>>>>>>>>>>>>    .o . $ >>%%%%>> : XXXX",
"XXXXXXXXXXXXXXXXXXXXXXXXXXXXXXXXXOOOOOOOXXXXXXXXXXXX .>>>>>>>>>>>>>  . >>>>>>>>>>>>>  .. >>>>>>>>>>>>>    .o . :   >   >  : XXXX",
"XOOOOOXOOOOOOXXXXXXXXXXXXXXXXXXXXXXXXXXXXXXXXXXXXXXX .>>>>>>>>>>>>> .. >>>>>>>>>>>>>  .. >>>>>>>>>>>>>    .o . :   >   >  : XXXX",
"XXOOOOOOOXXXXXXXXXXXXXXXXXXXXXXXXXXXXXXXXXXXXOOOOOXX .>%%>>>>>>>>>> .. >>>>>>>>>>>>>  .. >>>>>>>>>>>>>    .o . :   %  >>  : XXXX",
"XXXXXXOOOOXXXXXXXOOOOOOOOOOOXXXXOOOOOOOXXXXXXXOOOOOO .>%%>>>>>>>>>% .  >%%%>>>>>>>>>  .. >@@@>>>>>>>>>    .o . $ %%%>>>>  : XXXX",
"XXXXXXXXXXXXXXXXXXXXXXOOOOOOOOOOOOXXXXXXXXOOOOOOOOOX .>%%>>>>>>>>>% .. >%@%>>>>@@@@>  .. >@@@%>>>@>>>%    .o . :   >  %>  : XXXX",
"XXXXXXXXXXXXXXXXXXXXXOOO@@@@@@OOXXXXXXXXXXXXXXXXXXXX .>%@%%%>>>>>>% .. >%@%>%%>@@@@>  .. >@@%%%>>@@@@%    .o . :          : XXXX",
"XOOOXXXXXXXXXXXXXXXXXXXX@@@@@@@@XXXXXXXXXXXXXXXXXXXO .>%@@@@@%>%%%% .. >%@%%%%%@@@@@  .. >@@%%%>>@@@@>    .o . :          : XXXX",
"XOOOOOOOXXXXXXXXXXXXXXXXXXXXXXXXXXXXXOOOOOXXXXOOOOOO .               .                ..                  .o . :          : XXXX",
"OOOOOOOOOOXXXXXXXXXXXXXXXOOOOOOOOOXXOOOOOOOOXXXXXOOO .              ..                ..                  .o . : >>>>>>>  : XXXX",
"OOOOOOOOOOOOOXXOOOXXXXXXXXXXXXOOOOOOOOOOOOOOOOOOO@@O .ooooooooooooooooooooooooooooooooooooooooooooooooo   .o . :    %%    : XXXX",
"OXXOOOOOOOOOOOOOOOOOOOOOOOXXXXXXXXXXXXXOOXXXX@@@@@@@ ..o.o.ooooooooooooooooooooooooooooooooooo........o.. .. . :    >>>>> : XXXX",
"XXXXX@@@@@@@@@OOOOOOOOOOOOXXXXXXXOO@OOOOOOOOOOXXX@@@ .                                                  . .  o : >>>>>>>> :XXXXX",
"XXXXXXO@@@@@@@O@@@OOOOOOXXXXXXXXXO@@@@@@@@@OOOOOOOXX ...ooooo.ooo...ooooooooooooooooo..oooooo...o.oo..... .o   : > %    > :XXXXX",
"XXXXXXX@@@@@@@@XXXXXXXXXXXXXXXXXXXXX@@@@@OOOOOOOOOOO .. ... .                                         ... .o   : > %    > :XXXXX",
"XXXXXXXXXXXXXXXXXXXXXXXXXXXXXXXXXXXXXXXOOOOOOOOOXXXX ..                                                 . .o . : > %>>>>> :XXXXX",
"XXXXXXXXXXXXXXXXXXXXXXXXXXXXXXXXXXXXXXXXXXO@@@OOOOOO ....................................................  o . : > >      :XXXXX",
"XXXXXXXXXXXXXXXXXXXOOOXXXXXXXXXXXXXXXXXXXX@@@@@@@OOO ##%#%##%%%%%%%%%%%%%%%%%%%%%%%%%%%%%%%%#%%%%#%#%#%##  o . :   >      :XXXXX",
"XXXXXXXXXXXXXXXXXXXOOOOOOOOOOOOXXXXXXXX                            ..                ..                  ..o . :          :XXXXX",
"XXXXXXXXXXXXXXX@@X@@@OOOOOOOOOOXXOOOOOXX XX XX X@ @@               ..                ..                   .o . : >>%%>>>> :XXXXX",
"XXXXXXXXXXXXXXXXO@@@O@@@@@O@OOOOOOOXXXXX XX XX XX XX  ############  .                 .                  . o . :     >    :XXXXX",
"XXXXXXXXXXXXXXOOOOOO@@@@@@@@@@@@@OXXXXXX  X  X  X  X  ##         # .                 ..                  ..o . $     >    :OXXXX",
"XXXXXXXXXXXXXXXXXXXXXX@@@XXXXOOOXXXXXXXX              ###%%%%%%%## .. >>>>>>>>>>%%%  .. >>>>>>>>>>>>>     .o . $ %>>>>>>% :OOXXX",
"XXOOOOOOOXXXXXXXXXXXXXXXXXXXXXXXXX@@@@@@              ##         # .. >>>>>>>>>>%%%   . >>>>>>>>>>>>>    ..o . : %  >  >% :OOXXX",
"XXXXXOOOOOOOXXXXXXXXXXXOOOXXXOOOXOO@@@@@              ##%%%%%%%%##  . >>>>>>>>>>>%%  .. >>>>>>>>>>>>>    ..o . : %  >  >% $OOOOO",
"XXXXXXXXXXOOOXXXXXXOOOOOOOOOOOOOOOOOOOOO              ##         # .. >>>>>>>>>>>%%  .. >>>>>>>>>>>>>    ..o . : >  >  >% $XXXXX",
"XXXXXXXXOOOOOOOOXXXXOOOOOOOOOO@@@@@@@@OOOO OO@ @@@@@  ##%%#%%#%%%# .. >>>>>>>>>>>%%  .. >>>>>>>>>>>>>     oo . $ >  >  >> :XXXXX",
"XXXXXXXXX@@@@@@OOO@@@@@@@@@@@@OOOOOOOOOOOO     @@@@@  ##         # .  >%%%>>>>>>%%%  .. >@@@>>>>>>>>>    ..o . $ %%>>>>>> :XXXXX",
"XXXXXXXX@@@@@@@@OO@@@@@@@@@@@@@@@@OOOOO@@@@     @@@O  ###%%%%%%%%% .. >%@%>>>>@%%%%  .. >@@@%>>>@>>>%    ..o . :          :XXXXX",
"XXXXXXX@@@@@@@@@@@@@@@%%%%%@%%@@@@@@@@@@%%% %%% %%O@  ##        #% .. >@@%>%%>@%@@%  .. >@@%%%>>@@@@%    ..o . :::::::$$:::XXXXX",
"XXXXXX@@%@%%%%%%%%%%%%%@@@@@@@@@@@@@@@@@@@%= ==O OO@  ###%%%%%%%%# .. >@@%%%%%@@@@@  .. >@@%%%>>@@@@>    .oo .             XXXXX",
"XXXXX@OO@@@=%===%==OO%%%%@@@@@@@@@@@@@@@@@@@     OOO                .                ..                   .o .  .o..XXXXXXXXXXXX",
"OOOOOOOOOO@OO@@==@@OO@@@%%%%%%@@@@@@@@@@@@@OO     OO               ..                ..                  ..o .  .o..OOOOO@@XXX@@",
"@@@@@@@@OOOOOOOOOOOOOO@@@%%%%%%%%%%%%%%%OOOOX XXX XX .ooooooooooooooooooooooooooooooooooooooooooooooooo  .oo .  .o..OOO@@@@@@@@@",
"@@@@@@@@@@@OOOOOOOOOOOOOOO%=%==%%%%=%=%@OOOXXX XXX X ..o.o.ooooooooooooooooooooooooooooooooooo........o. ..o .  .o..@@@@@@OO@@@@",
"X@@@@@@@@@@@@@@@@@@@@@OOOOOO%%=====@@@@@@@OOOO     O .                                                   ..o .  .o..OOOOOOOOOO@X",
"XXXXXXXXX@@@@@@@@@@@@@OOOOOOOOO@@@@@@@@@@@@@OOO      ...ooooo.ooo...ooooooooooooooooo..oooooo...o.oo.... ..o .  .o..@@@@@@@@@@XX",
"XXXXXXXXXXX@@@@@@@@OOOOOOOOOOOOO@@OO@OO@@@@@@@@ @@@  .. ... .                                         .. .oo .  .o..%%%%%%%%%XXX",
"XXXXX@@@XXXXXX@@@@@@@@@@@@O@@@@@@@@OOOOOOOOOOOOO @@@ ..                                                 ..oo .  .o..====%%%XXXXX",
"XXX%%@@@@@@XXXXXXX%%@@@@@@@@@@@@@@@@@@@@%%%%%%%@     ......................................................o .  .o..@@XXXXXXXXXX",
"XXXXX%%%%%@%%%%%@XXX%%%%@@@@@@@@@@@@@@@              ##%#%##%%%%%%%%%%%%%%%%%%%%%%%%%%%%%%%%#%%%%#%#%#%#...o .  .o..O@XXXXXXXXXX",
"@@@XXXX%===%%%@@XXXXX===%%%%%%%%%====%%% %@ @@ @@ @@               ..                ..                 ...o . ..o..O%@@@@@%%%@@",
"@@@XXXX@@@@=@@@@@@@@@@@@@@@@%%%===--==== @@ @@ @@                  ..                ..                 ...o . ..o..@%%%%%%%%@@@",
"%@%%%%@@@@@@@@@@@@@%%%@@@@@===%%%%%%%%%%  %  @  %  =  ############  .                 .  ############   ...o . ..o..@@@@%%%%@@@%",
"@@%%%@%%%%%@@@@@%%%%%%@%%%@@========%%%%              ##         # .                 ..  ##         #   #... ....o..========%%%%",
"@@@@%%%%%%%%%%%%%%%%%%%%%%%@@@---=======              ###%%%%%%%## ..  >>>>>>>>>>>>> ..  ###%%%%%%%##    ..o ....o..%%%%@@@@@@@@",
"@%@%@%%%%%===%%%%%%%%%%%%%%%%%%%%%---=-=              ##         # ..  >>>>>>>>>>>>>  .  ##         #    ... ....o..%%%%@%%%%%@%",
"%@%%%%%==========%%%=%%======%%%%%%%%%%=  @@@@@@@@@   ##%%%%%%%%##  .  >>>>>>>>>>>>> ..  ##%%%%%%%%##    ... .  .  .%%%%%%%%%%%@",
"%%%%%%%%%=============----%%%%%%%%%%%%%%%% %%% %%%%%  ##         # ..  >>>>>>>>>>>>> ..  ##         #    ..o .  .  .%%%%%%%%%%%%",
"%%%%%%%%%%%%%---=================%%%===%%%     %%%%%  ##%%#%%#%%%# ..  >>>>>>>>>>>>> ..  ##%%#%%#%%%#    ..o .  .  .======%%%%%%",
"%=%%%%%%%%%%%%%%%=----================%%%%%     ====  ##         # .   >@@@>>>>>>>>> ..  ##         #    ..o .  .  .---=========",
"=%=%=%%%%%-======%%%------------===-------- === ====  ###%%%%%%%%% ..  >@@@%>>>@>>>% ..  ###%%%%%%%%%    ... .  .  .----========",
"=======-==---==----=====&&&&&----======----- === ---  ##        #% ..  >@@%%%>>@@@@% ..  ##        #%    ... .  .  .============",
"=====-----------------==%%%&&&&-&%%=-&&&----     ---  ###%%%%%%%%# ..  >@@%%%>>@@@@> ..  ###%%%%%%%%#    ..o .  .  .=---------==",
"=====--&----&&&&--------===%%%%======-&&&&&-&     &&                .                ..                  ... .oo.oo.&&&&&------=",
"=-=-=---&&&&&&&&&&&&&-&----==========----&&&& &&& --               ..                ..                    o .......============",
"----------&*******&--------------------------- --- - .ooooooooooooooooooooooooooooooooooooooooooooooooo    o .......--==========",
"-----------------------------------&&&&&-----&     - ..o.o.ooooooooooooooooooooooooooooooooooo........o.   o .......------------",
"---------------------=====&&&&&&&&&&&&--------&      .                                                     o .......-=====------",
"-----------&-&&------%%%==--&****&&&--&&&&----- -&&  ...ooooo.ooo...ooooooooooooooooo..oooooo...o.oo....   . .......&%%%==------",
"-&-&-&&&-&&-&&&&-&-&-=====-&&&&&***&&&&&&&&&&&&& &&* .. ... .                                         ..   o .......&=====-&-&-&",
"&&&-*&&*&&*&&&&*&*&&&%%%==&&&*&&&*&*&*&*&*&*&&&&     ..                                                    o .......&%%%==&*&&&&",
"&&**&*======&%====*&*=====*&*&*&*&*&*&=              ##%#%##%%%%%%%%%%%%%%%%%%%%%%%%%%%%%%%%#%%%%#%#%#%#...o .  .o..*=====*&*&*&",
"***;*;%%%%==*%%%%=***%%%==*;*******;**%% %= *% %% **               ..                ..                 ...o . ..o..*%%%==****;*",
";*;*;*%=====;%====;*;%%%==;;;*%=;*;*;;%= == ;% ==                  ..                ..                 ...o . ..o..;%%%==;*;*%=",
"*;*;;;%%%%==*%%%%=*;*%%%==;;;;%=*;*;*;%%  =  %  %  ;  ############  .                 .  ############   ...o . ..o..*%%%==;;*;%=",
";;;;;;%=====;%====;;;%%%=%=;;;%=;;;;;;%=              ##         # .                 ..  ##         #   #... ....o..;%%%=%=;;;%=",
";;%=;;%%%%==;%%%%=;%%%%%=%%=;;%=;;%=;;%%              ###%%%%%%%## ..  >>>>>>>>>>>>> ..  ###%%%%%%%##    ..o ....o..%%%%=%%=;;%=",
";;%=;;%======%%%%=;%%%%%=%%=;;%=;;%=;;%=              ##         # ..  >>>>>>>>>>>>>  .  ##         #    ... ....o..%%%%=%%=;;%=",
";;%=;;%%%%===%%%%=;%%%%%=%%=;;%=;;%=;;%%  @@@@@@@@@   ##%%%%%%%%##  .  >>>>>>>>>>>>> ..  ##%%%%%%%%##    ... .  .  .%%%%=%%=;;%=",
";;%%;;%%%%===%%%%=%%%%%%=%%%;;%%;;%%;;%%%% ==% %%=%%  ##         # ..  >>>>>>>>>>>>> ..  ##         #    ..o .  .  .%%%%=%%%;;%%",
"%%%%%%%%%%%%=%@@@%@%@@@@%@@%%%%%%%%%%%%%%%     @@%@%  ##%%#%%#%%%# ..  >>>>>>>>>>>>> ..  ##%%#%%#%%%#    ..o .  .  .@@@@%@@%%%%%",
"@@@@@%%%%%%%=@@@@%@%@@@@=@@%@@@%@@@@@%%%%%%     @%@%  ##         # .   >@@@>>>>>>>>> ..  ##         #    ..o .  .  .@@@@=@@%@@@%",
"@@@@@@@@@@@@%@@@@%@@@@@@%@@@@@@%@@@@@@@@@@@ %@@ @%@@  ###%%%%%%%%% ..  >@@@%>>>@>>>% ..  ###%%%%%%%%%    ... .  .  .@@@@%@@@@@@%",
"@@@@@@@@@@@@@@@@@@@@@@@@%@@@@@@@@@@@@@@@@@@@ @@@ @@@  ##        #% ..  >@@%%%>>@@@@% ..  ##        #%    ... .  .  .@@@@%@@@@@@@",
"@@@@@@@@@@@@%@@@@%@@@@@@@@@@@@@%@@@@@@@@@@@@     %@@  ###%%%%%%%%# ..  >@@%%%>>@@@@> ..  ###%%%%%%%%#    ..o .  .  .@@@@@@@@@@@%",
"@@@@@@@@@@@@@@@@@@@@@@@@@@@@@@@@@@@@@@@@@@@@@     @@                .                ..                  ... .oo.oo.@@@@@@@@@@@@",
"@O@O@O@O@O@O@O@O@O@O@O@O@O@O@O@O@O@O@O@O@O@O@ @O@ @O               ..                ..                    o .......@O@O@O@O@O@O",
"O@O@O@O@O@O@O@O@O@O@O@O@O@O@O@O@O@O@O@O@O@O@O@ @O@ @ .ooooooooooooooooooooooooooooooooooooooooooooooooo    o .......O@O@O@O@O@O@"
};
