/* XPM */
static char *_41efbd68f8d4eeab459d9c002ca5921MoLgiJ0uHS47GJc1[] = {
/* columns rows colors chars-per-pixel */
"32 32 2 1 ",
"  c black",
". c white",
/* pixels */
"                                ",
" .............................. ",
" .............................. ",
" .............................. ",
" .............................. ",
" .............................. ",
" .............................. ",
" .............................. ",
" .............................. ",
" .............................. ",
" ..........          .......... ",
" ..........          .......... ",
" ...........  ...... .......... ",
" ...........  ................. ",
" ...........  ... ............. ",
" ...........      ............. ",
" ...........      ............. ",
" ...........  ... ............. ",
" ...........  ................. ",
" ...........  ...... .......... ",
" ..........          .......... ",
" ..........          .......... ",
" .............................. ",
" .............................. ",
" .............................. ",
" .............................. ",
" .............................. ",
" .............................. ",
" .............................. ",
" .............................. ",
" .............................. ",
"                                "
};
