/* XPM */
static char *f6beed05d75d4ad5cd2d2e862c3fd156WzP0McnglnNFcxrF[] = {
/* columns rows colors chars-per-pixel */
"32 32 2 1 ",
"  c black",
". c white",
/* pixels */
"                                ",
" .............................. ",
" .............................. ",
" .............................. ",
" .............................. ",
" .............................. ",
" .............................. ",
" .............................. ",
" .............................. ",
" .............................. ",
" ..........   ....   .......... ",
" ...........  ....  ........... ",
" ...........   ...  ........... ",
" ...........    ..  ........... ",
" ...........     .  ........... ",
" ...........  .  .  ........... ",
" ...........  .  .  ........... ",
" ...........  .     ........... ",
" ...........  ..    ........... ",
" ...........  ...   ........... ",
" ...........  ....  ........... ",
" ..........   ....   .......... ",
" .............................. ",
" .............................. ",
" .............................. ",
" .............................. ",
" .............................. ",
" .............................. ",
" .............................. ",
" .............................. ",
" .............................. ",
"                                "
};
