/* XPM */
static char *_3ef6acd08b14df3b2d718e0d80b81e3zPP02Y2J7EXAWGTm[] = {
/* columns rows colors chars-per-pixel */
"32 32 2 1 ",
"  c black",
". c white",
/* pixels */
"                                ",
" .............................. ",
" .............................. ",
" .............................. ",
" .............................. ",
" .............................. ",
" .............................. ",
" .............................. ",
" .............................. ",
" .............................. ",
" ........    ......    ........ ",
" .........  ........  ......... ",
" .........  ..    ..  ......... ",
" .........  ...  ...  ......... ",
" .........  ...  ...  ......... ",
" .........  ...  ...  ......... ",
" .........  ...  ...  ......... ",
" .........  ...  ...  ......... ",
" .........  ..    ..  ......... ",
" .........            ......... ",
" ..........    ..    .......... ",
" ...........  ....  ........... ",
" .............................. ",
" .............................. ",
" .............................. ",
" .............................. ",
" .............................. ",
" .............................. ",
" .............................. ",
" .............................. ",
" .............................. ",
"                                "
};
