/* XPM */
static char *_f3990be03a54e36c4f7b59efb05b1daaVo9dZDOrCHozEtu[] = {
/* columns rows colors chars-per-pixel */
"64 64 5 1 ",
"  c black",
". c #263238",
"X c #DD191D",
"o c #2BAF2B",
"O c #FFC107",
/* pixels */
"                .oooooooooooooooooooooooooooooo.                ",
"                .oooooooooooooooooooooooooooooo.                ",
"                .oooooooooooooooooooooooooooooo.                ",
"                .oooooooooooooooooooooooooooooo.                ",
"                .oooooooooooooooooooooooooooooo.                ",
"                 .oooooooooooooooooooooooooooo.                 ",
"                 .oooooooooooooooooooooooooooo.                 ",
"                 .oooooooooooooooooooooooooooo.                 ",
"                  .oooooooooooooooooooooooooo.                  ",
"                   .oooooooooooooooooooooooo.                   ",
"                   .oooooooooooooooooooooooo.                   ",
"                    .oooooooooooooooooooooo.                    ",
"                     .oooooooooooooooooooo.                     ",
"                      ..oooooooooooooooo..                      ",
"                        .oooooooooooooo.                        ",
"                         ...oooooooo...                         ",
"                            ........                            ",
"                         ...OOOOOOOO...                         ",
"                        .OOOOOOOOOOOOOO.                        ",
"                      ..OOOOOOOOOOOOOOOO..                      ",
"                     .OOOOOOOOOOOOOOOOOOOO.                     ",
"                    .OOOOOOOOOOOOOOOOOOOOOO.                    ",
"                   .OOOOOOOOOOOOOOOOOOOOOOOO.                   ",
"                   .OOOOOOOOOOOOOOOOOOOOOOOO.                   ",
"                  .OOOOOOOOOOOOOOOOOOOOOOOOOO.                  ",
"                 .OOOOOOOOOOOOOOOOOOOOOOOOOOOO.                 ",
"                 .OOOOOOOOOOOOOOOOOOOOOOOOOOOO.                 ",
"                 .OOOOOOOOOOOOOOOOOOOOOOOOOOOO.                 ",
"                .OOOOOOOOOOOOOOOOOOOOOOOOOOOOOO.                ",
"                .OOOOOOOOOOOOOOOOOOOOOOOOOOOOOO.                ",
"                .OOOOOOOOOOOOOOOOOOOOOOOOOOOOOO.                ",
"                .OOOOOOOOOOOOOOOOOOOOOOOOOOOOOO.                ",
"                .OOOOOOOOOOOOOOOOOOOOOOOOOOOOOO.                ",
"                .OOOOOOOOOOOOOOOOOOOOOOOOOOOOOO.                ",
"                .OOOOOOOOOOOOOOOOOOOOOOOOOOOOOO.                ",
"                .OOOOOOOOOOOOOOOOOOOOOOOOOOOOOO.                ",
"                 .OOOOOOOOOOOOOOOOOOOOOOOOOOOO.                 ",
"                 .OOOOOOOOOOOOOOOOOOOOOOOOOOOO.                 ",
"                 .OOOOOOOOOOOOOOOOOOOOOOOOOOOO.                 ",
"                  .OOOOOOOOOOOOOOOOOOOOOOOOOO.                  ",
"                   .OOOOOOOOOOOOOOOOOOOOOOOO.                   ",
"                   .OOOOOOOOOOOOOOOOOOOOOOOO.                   ",
"                    .OOOOOOOOOOOOOOOOOOOOOO.                    ",
"                     .OOOOOOOOOOOOOOOOOOOO.                     ",
"                      ..OOOOOOOOOOOOOOOO..                      ",
"                        .OOOOOOOOOOOOOO.                        ",
"                         ...OOOOOOOO...                         ",
"                            ........                            ",
"                         ...XXXXXXXX...                         ",
"                        .XXXXXXXXXXXXXX.                        ",
"                      ..XXXXXXXXXXXXXXXX..                      ",
"                     .XXXXXXXXXXXXXXXXXXXX.                     ",
"                    .XXXXXXXXXXXXXXXXXXXXXX.                    ",
"                   .XXXXXXXXXXXXXXXXXXXXXXXX.                   ",
"                   .XXXXXXXXXXXXXXXXXXXXXXXX.                   ",
"                  .XXXXXXXXXXXXXXXXXXXXXXXXXX.                  ",
"                 .XXXXXXXXXXXXXXXXXXXXXXXXXXXX.                 ",
"                 .XXXXXXXXXXXXXXXXXXXXXXXXXXXX.                 ",
"                 .XXXXXXXXXXXXXXXXXXXXXXXXXXXX.                 ",
"                .XXXXXXXXXXXXXXXXXXXXXXXXXXXXXX.                ",
"                .XXXXXXXXXXXXXXXXXXXXXXXXXXXXXX.                ",
"                .XXXXXXXXXXXXXXXXXXXXXXXXXXXXXX.                ",
"                .XXXXXXXXXXXXXXXXXXXXXXXXXXXXXX.                ",
"                .XXXXXXXXXXXXXXXXXXXXXXXXXXXXXX.                "
};
