/* XPM */
static char *e666d9d09e4449a3b086d024dbad097bHim9xBgyQnZAjTVB[] = {
/* columns rows colors chars-per-pixel */
"64 64 9 1 ",
"  c #055B00",
". c #056500",
"X c #056F00",
"o c #0A7E07",
"O c #546E7A",
"+ c #0A8F08",
"@ c #259B24",
"# c #2AA628",
"$ c #72D572",
/* pixels */
"$$$$$$$$$$$$$$$$$$$$$$$$$$$$$$$$$$$$$$$$$$$$$$$$$$$$$$$$$$$$$$$$",
"$$$$$$OOOO$$$$$$$$$$$$OOOO$$$$$$$$$$$$OOOO$$$$$$$$$$$$OOOO$$$$$$",
"$$$$OO####OO$$$$$$$$OO####OO$$$$$$$$OO####OO$$$$$$$$OO####OO$$$$",
"$$$O##@@@@##O$$$$$$O##@@@@##O$$$$$$O##@@@@##O$$$$$$O##@@@@##O$$$",
"$$O#@@++++@@#O$$$$O#@@++++@@#O$$$$O#@@++++@@#O$$$$O#@@++++@@#O$$",
"$$O#@+oooo+@#O$$$$O#@+oooo+@#O$$$$O#@+oooo+@#O$$$$O#@+oooo+@#O$$",
"$O#@+oX..Xo+@#O$$O#@+oX..Xo+@#O$$O#@+oX..Xo+@#O$$O#@+oX..Xo+@#O$",
"$O#@+o.  .o+@#O$$O#@+o.  .o+@#O$$O#@+o.  .o+@#O$$O#@+o.  .o+@#O$",
"$O#@+o.  .o+@#O$$O#@+o.  .o+@#O$$O#@+o.  .o+@#O$$O#@+o.  .o+@#O$",
"$O#@+oX..Xo+@#O$$O#@+oX..Xo+@#O$$O#@+oX..Xo+@#O$$O#@+oX..Xo+@#O$",
"$$O#@+oooo+@#O$$$$O#@+oooo+@#O$$$$O#@+oooo+@#O$$$$O#@+oooo+@#O$$",
"$$O#@@++++@@#O$$$$O#@@++++@@#O$$$$O#@@++++@@#O$$$$O#@@++++@@#O$$",
"$$$O##@@@@##O$$$$$$O##@@@@##O$$$$$$O##@@@@##O$$$$$$O##@@@@##O$$$",
"$$$$OO####OO$$$$$$$$OO####OO$$$$$$$$OO####OO$$$$$$$$OO####OO$$$$",
"$$$$$$OOOO$$$$$$$$$$$$OOOO$$$$$$$$$$$$OOOO$$$$$$$$$$$$OOOO$$$$$$",
"$$$$$$$$$$$$$$$$$$$$$$$$$$$$$$$$$$$$$$$$$$$$$$$$$$$$$$$$$$$$$$$$",
"$$$$$$$$$$$$$$$$$$$$$$$$$$$$$$$$$$$$$$$$$$$$$$$$$$$$$$$$$$$$$$$$",
"$$$$$$OOOO$$$$$$$$$$$$OOOO$$$$$$$$$$$$OOOO$$$$$$$$$$$$OOOO$$$$$$",
"$$$$OO####OO$$$$$$$$OO####OO$$$$$$$$OO####OO$$$$$$$$OO####OO$$$$",
"$$$O##@@@@##O$$$$$$O##@@@@##O$$$$$$O##@@@@##O$$$$$$O##@@@@##O$$$",
"$$O#@@++++@@#O$$$$O#@@++++@@#O$$$$O#@@++++@@#O$$$$O#@@++++@@#O$$",
"$$O#@+oooo+@#O$$$$O#@+oooo+@#O$$$$O#@+oooo+@#O$$$$O#@+oooo+@#O$$",
"$O#@+oX..Xo+@#O$$O#@+oX..Xo+@#O$$O#@+oX..Xo+@#O$$O#@+oX..Xo+@#O$",
"$O#@+o.  .o+@#O$$O#@+o.  .o+@#O$$O#@+o.  .o+@#O$$O#@+o.  .o+@#O$",
"$O#@+o.  .o+@#O$$O#@+o.  .o+@#O$$O#@+o.  .o+@#O$$O#@+o.  .o+@#O$",
"$O#@+oX..Xo+@#O$$O#@+oX..Xo+@#O$$O#@+oX..Xo+@#O$$O#@+oX..Xo+@#O$",
"$$O#@+oooo+@#O$$$$O#@+oooo+@#O$$$$O#@+oooo+@#O$$$$O#@+oooo+@#O$$",
"$$O#@@++++@@#O$$$$O#@@++++@@#O$$$$O#@@++++@@#O$$$$O#@@++++@@#O$$",
"$$$O##@@@@##O$$$$$$O##@@@@##O$$$$$$O##@@@@##O$$$$$$O##@@@@##O$$$",
"$$$$OO####OO$$$$$$$$OO####OO$$$$$$$$OO####OO$$$$$$$$OO####OO$$$$",
"$$$$$$OOOO$$$$$$$$$$$$OOOO$$$$$$$$$$$$OOOO$$$$$$$$$$$$OOOO$$$$$$",
"$$$$$$$$$$$$$$$$$$$$$$$$$$$$$$$$$$$$$$$$$$$$$$$$$$$$$$$$$$$$$$$$",
"$$$$$$$$$$$$$$$$$$$$$$$$$$$$$$$$$$$$$$$$$$$$$$$$$$$$$$$$$$$$$$$$",
"$$$$$$OOOO$$$$$$$$$$$$OOOO$$$$$$$$$$$$OOOO$$$$$$$$$$$$OOOO$$$$$$",
"$$$$OO####OO$$$$$$$$OO####OO$$$$$$$$OO####OO$$$$$$$$OO####OO$$$$",
"$$$O##@@@@##O$$$$$$O##@@@@##O$$$$$$O##@@@@##O$$$$$$O##@@@@##O$$$",
"$$O#@@++++@@#O$$$$O#@@++++@@#O$$$$O#@@++++@@#O$$$$O#@@++++@@#O$$",
"$$O#@+oooo+@#O$$$$O#@+oooo+@#O$$$$O#@+oooo+@#O$$$$O#@+oooo+@#O$$",
"$O#@+oX..Xo+@#O$$O#@+oX..Xo+@#O$$O#@+oX..Xo+@#O$$O#@+oX..Xo+@#O$",
"$O#@+o.  .o+@#O$$O#@+o.  .o+@#O$$O#@+o.  .o+@#O$$O#@+o.  .o+@#O$",
"$O#@+o.  .o+@#O$$O#@+o.  .o+@#O$$O#@+o.  .o+@#O$$O#@+o.  .o+@#O$",
"$O#@+oX..Xo+@#O$$O#@+oX..Xo+@#O$$O#@+oX..Xo+@#O$$O#@+oX..Xo+@#O$",
"$$O#@+oooo+@#O$$$$O#@+oooo+@#O$$$$O#@+oooo+@#O$$$$O#@+oooo+@#O$$",
"$$O#@@++++@@#O$$$$O#@@++++@@#O$$$$O#@@++++@@#O$$$$O#@@++++@@#O$$",
"$$$O##@@@@##O$$$$$$O##@@@@##O$$$$$$O##@@@@##O$$$$$$O##@@@@##O$$$",
"$$$$OO####OO$$$$$$$$OO####OO$$$$$$$$OO####OO$$$$$$$$OO####OO$$$$",
"$$$$$$OOOO$$$$$$$$$$$$OOOO$$$$$$$$$$$$OOOO$$$$$$$$$$$$OOOO$$$$$$",
"$$$$$$$$$$$$$$$$$$$$$$$$$$$$$$$$$$$$$$$$$$$$$$$$$$$$$$$$$$$$$$$$",
"$$$$$$$$$$$$$$$$$$$$$$$$$$$$$$$$$$$$$$$$$$$$$$$$$$$$$$$$$$$$$$$$",
"$$$$$$OOOO$$$$$$$$$$$$OOOO$$$$$$$$$$$$OOOO$$$$$$$$$$$$OOOO$$$$$$",
"$$$$OO####OO$$$$$$$$OO####OO$$$$$$$$OO####OO$$$$$$$$OO####OO$$$$",
"$$$O##@@@@##O$$$$$$O##@@@@##O$$$$$$O##@@@@##O$$$$$$O##@@@@##O$$$",
"$$O#@@++++@@#O$$$$O#@@++++@@#O$$$$O#@@++++@@#O$$$$O#@@++++@@#O$$",
"$$O#@+oooo+@#O$$$$O#@+oooo+@#O$$$$O#@+oooo+@#O$$$$O#@+oooo+@#O$$",
"$O#@+oX..Xo+@#O$$O#@+oX..Xo+@#O$$O#@+oX..Xo+@#O$$O#@+oX..Xo+@#O$",
"$O#@+o.  .o+@#O$$O#@+o.  .o+@#O$$O#@+o.  .o+@#O$$O#@+o.  .o+@#O$",
"$O#@+o.  .o+@#O$$O#@+o.  .o+@#O$$O#@+o.  .o+@#O$$O#@+o.  .o+@#O$",
"$O#@+oX..Xo+@#O$$O#@+oX..Xo+@#O$$O#@+oX..Xo+@#O$$O#@+oX..Xo+@#O$",
"$$O#@+oooo+@#O$$$$O#@+oooo+@#O$$$$O#@+oooo+@#O$$$$O#@+oooo+@#O$$",
"$$O#@@++++@@#O$$$$O#@@++++@@#O$$$$O#@@++++@@#O$$$$O#@@++++@@#O$$",
"$$$O##@@@@##O$$$$$$O##@@@@##O$$$$$$O##@@@@##O$$$$$$O##@@@@##O$$$",
"$$$$OO####OO$$$$$$$$OO####OO$$$$$$$$OO####OO$$$$$$$$OO####OO$$$$",
"$$$$$$OOOO$$$$$$$$$$$$OOOO$$$$$$$$$$$$OOOO$$$$$$$$$$$$OOOO$$$$$$",
"$$$$$$$$$$$$$$$$$$$$$$$$$$$$$$$$$$$$$$$$$$$$$$$$$$$$$$$$$$$$$$$$"
};
